<?xml version="1.0" standalone="no"?><!DOCTYPE svg PUBLIC "-//W3C//DTD SVG 1.1//EN" "http://www.w3.org/Graphics/SVG/1.1/DTD/svg11.dtd"><svg t="1604038411960" class="icon" viewBox="0 0 1024 1024" version="1.1" xmlns="http://www.w3.org/2000/svg" p-id="12765" xmlns:xlink="http://www.w3.org/1999/xlink" width="200" height="200"><defs><style type="text/css"></style></defs><path d="M512 841.143a36.571 36.571 0 1 0-36.571-36.572A36.571 36.571 0 0 0 512 841.143z" fill="#f62447" p-id="12766"></path><path d="M512 130.926a28.526 28.526 0 0 1 24.869 14.628L945.737 854.31a26.331 26.331 0 0 1 0 28.525 26.331 26.331 0 0 1-24.868 14.629H103.13a29.257 29.257 0 0 1-24.868-43.154l409.6-708.023A27.063 27.063 0 0 1 512 130.926m0-73.143a100.937 100.937 0 0 0-88.503 51.2L15.36 817.737a101.669 101.669 0 0 0 87.771 152.869H921.6a101.669 101.669 0 0 0 88.503-152.869L601.234 108.983A100.937 100.937 0 0 0 512 57.783z" fill="#f62447" p-id="12767"></path><path d="M512 713.143a36.571 36.571 0 0 1-36.571-36.572V329.143a36.571 36.571 0 0 1 73.142 0V676.57A36.571 36.571 0 0 1 512 713.143z" fill="#f62447" p-id="12768"></path></svg>