<?xml version="1.0" standalone="no"?><!DOCTYPE svg PUBLIC "-//W3C//DTD SVG 1.1//EN" "http://www.w3.org/Graphics/SVG/1.1/DTD/svg11.dtd"><svg t="1608608310252" class="icon" viewBox="0 0 1024 1024" version="1.1" xmlns="http://www.w3.org/2000/svg" p-id="4814" xmlns:xlink="http://www.w3.org/1999/xlink" width="200" height="200"><defs><style type="text/css"></style></defs><path d="M985.6 716.8v115.2a153.6 153.6 0 0 1-153.6 153.6H192a153.6 153.6 0 0 1-153.6-153.6v-512a102.4 102.4 0 0 1 60.416-91.136l350.72-153.6a153.6 153.6 0 0 1 124.928 0l350.72 156.16a102.4 102.4 0 0 1 60.416 93.184V716.8z" fill="#FFFFFF" p-id="4815"></path><path d="M832 1024H192A192 192 0 0 1 0 832v-512a141.312 141.312 0 0 1 83.456-126.464l350.208-153.6a194.048 194.048 0 0 1 156.672 0l350.208 156.16A141.312 141.312 0 0 1 1024 322.048v512A192 192 0 0 1 832 1024zM512 97.792a115.712 115.712 0 0 0-47.104 9.728L114.688 263.68a64 64 0 0 0-37.888 58.368v512a115.2 115.2 0 0 0 115.2 113.152h640a115.2 115.2 0 0 0 115.2-115.2v-512a64 64 0 0 0-37.888-58.368L559.104 107.52a115.712 115.712 0 0 0-47.104-9.728z" fill="#FFFFFF" p-id="4816"></path><path d="M457.216 698.368c16.896 0 51.2 3.072 108.544 3.072h157.696c-8.704 22.016-15.36 40.448-20.48 55.808h-153.6L460.8 751.616a125.44 125.44 0 0 1-44.032-9.216 112.64 112.64 0 0 1-44.544-31.232l-46.08 51.2-24.576-65.024c12.288-11.776 26.624-24.064 42.496-37.376v-113.152h-40.448V491.008h93.184V665.6a83.968 83.968 0 0 0 51.2 29.184l-22.528-37.376a58.368 58.368 0 0 0 12.8-39.424V358.4h239.616v184.32l33.28 38.912q-32.256 20.992-62.976 38.4l54.784 38.4-37.888 38.912-98.816-72.704v41.472a600.064 600.064 0 0 0-109.056 32.256z m-102.4-358.4c24.576 29.696 44.032 55.808 59.392 77.824l-51.2 33.28c-18.944-30.208-37.376-57.344-54.784-80.896zM623.104 409.6H492.544v28.16h130.56z m0 102.4v-29.696H492.544V512z m-67.584 106.496l-32.768-23.552 32.768-32.768H492.544v72.704zM651.264 563.2h-92.672l48.64 31.232c14.848-12.288 29.696-22.528 44.032-31.232z" fill="#006FE6" p-id="4817"></path></svg>