<?xml version="1.0" standalone="no"?><!DOCTYPE svg PUBLIC "-//W3C//DTD SVG 1.1//EN" "http://www.w3.org/Graphics/SVG/1.1/DTD/svg11.dtd"><svg t="1605580741711" class="icon" viewBox="0 0 1024 1024" version="1.1" xmlns="http://www.w3.org/2000/svg" p-id="5517" xmlns:xlink="http://www.w3.org/1999/xlink" width="200" height="200"><defs><style type="text/css"></style></defs><path d="M113.888069 682.84263m20.747541 14.996651l210.795013 152.365979q20.747541 14.996651 5.75089 35.744192l-87.280512 120.750687q-14.996651 20.747541-35.744192 5.75089l-210.795014-152.365979q-20.747541-14.996651-5.750889-35.744193l87.280512-120.750686q14.996651-20.747541 35.744192-5.75089Z" fill="#FFFFFF" p-id="5518"></path><path d="M124.928 754.688l169.472 122.368-57.344 79.36-169.472-122.368 57.344-79.36m-5.632-61.44a24.576 24.576 0 0 0-20.48 10.752L11.264 824.832a25.6 25.6 0 0 0 5.632 35.328l210.944 153.6a27.136 27.136 0 0 0 14.848 5.12 26.624 26.624 0 0 0 20.992-10.752l87.04-120.832a26.112 26.112 0 0 0-5.632-35.84l-210.944-153.6a26.624 26.624 0 0 0-14.848-4.608z" fill="#FFFFFF" p-id="5519"></path><path d="M985.088 396.8a71.168 71.168 0 0 0-99.328 15.872L716.8 649.216h-162.816s-22.016 0-22.016-14.336 22.016-15.872 22.016-15.872H665.6a73.728 73.728 0 1 0 0-147.456H385.024a110.08 110.08 0 0 0-98.304 46.08l-166.912 230.4 181.76 132.608 51.2-72.704h379.392a79.36 79.36 0 0 0 66.048-34.816l3.584-3.072 197.632-273.92a71.168 71.168 0 0 0-14.336-99.328z" fill="#FFFFFF" p-id="5520"></path><path d="M943.616 434.688a20.48 20.48 0 0 1 11.776 3.584 19.456 19.456 0 0 1 7.68 12.8 19.968 19.968 0 0 1-3.584 14.848L768 734.72l-3.584 4.096a28.16 28.16 0 0 1-23.552 12.288H327.68l-14.848 21.504-22.528 30.72-98.816-65.536 136.704-189.44a60.416 60.416 0 0 1 51.2-24.576H665.6a22.528 22.528 0 1 1 0 45.056h-113.152a69.12 69.12 0 0 0-71.68 67.072 67.584 67.584 0 0 0 73.216 65.536h187.392l15.36-21.504 170.496-236.032a19.456 19.456 0 0 1 16.384-8.192m0-51.2a71.68 71.68 0 0 0-57.856 29.184l-168.96 235.52h-163.328c-3.072 0-21.504 0-21.504-14.336s22.016-15.872 22.016-15.872H665.6a73.728 73.728 0 1 0 0-147.456H377.344a110.592 110.592 0 0 0-90.624 46.08l-166.912 230.4 181.76 132.608 51.2-72.704h379.392a79.36 79.36 0 0 0 66.048-34.816l3.584-3.072 197.632-273.92a71.168 71.168 0 0 0-15.872-99.328 69.12 69.12 0 0 0-41.472-13.312zM512 241.664l-182.784-23.04a22.016 22.016 0 0 1-12.8-37.888l132.608-125.44A22.528 22.528 0 0 1 465.92 51.2l172.032 17.408a24.064 24.064 0 0 1 14.848 40.448l-121.344 125.952a20.992 20.992 0 0 1-19.456 6.656z" fill="#FFFFFF" p-id="5521"></path><path d="M474.112 102.4l102.4 10.24-71.68 76.288-108.032-13.312L474.112 102.4m-10.24-51.2a22.528 22.528 0 0 0-14.848 5.632L316.416 180.736a22.016 22.016 0 0 0 12.8 37.888l182.784 23.04h2.56a20.48 20.48 0 0 0 15.872-6.656l122.368-127.488a24.064 24.064 0 0 0-14.848-40.448L465.92 51.2z" fill="#FFFFFF" p-id="5522"></path><path d="M578.048 434.176l-175.616-14.848a26.624 26.624 0 0 1-22.016-17.408L314.88 212.992a25.088 25.088 0 0 1 15.872-32.256 24.576 24.576 0 0 1 32.256 15.36l60.416 173.568 117.248 10.24-44.544-126.976a25.6 25.6 0 0 1 51.2-16.896l57.344 164.352a26.624 26.624 0 0 1-4.096 24.064 26.112 26.112 0 0 1-22.528 9.728z" fill="#FFFFFF" p-id="5523"></path><path d="M578.048 434.176h-6.144a26.112 26.112 0 0 1-18.432-16.384L488.448 230.4a26.112 26.112 0 0 1 15.872-32.768 25.6 25.6 0 0 1 32.256 15.872l51.2 149.504 85.504-80.896L614.4 109.056a25.6 25.6 0 0 1 48.64-16.896l65.536 188.928a24.064 24.064 0 0 1-6.656 26.624l-126.464 119.808a24.576 24.576 0 0 1-17.408 6.656z" fill="#FFFFFF" p-id="5524"></path></svg>