<?xml version="1.0" standalone="no"?><!DOCTYPE svg PUBLIC "-//W3C//DTD SVG 1.1//EN" "http://www.w3.org/Graphics/SVG/1.1/DTD/svg11.dtd"><svg t="1605580737930" class="icon" viewBox="0 0 1024 1024" version="1.1" xmlns="http://www.w3.org/2000/svg" p-id="5389" xmlns:xlink="http://www.w3.org/1999/xlink" width="200" height="200"><defs><style type="text/css"></style></defs><path d="M124.928 756.224l169.472 122.368-57.344 79.36-169.472-122.368 57.344-79.36m-5.632-61.44a24.576 24.576 0 0 0-20.48 10.752L11.264 826.368a25.6 25.6 0 0 0 5.632 35.328l210.944 153.6a23.552 23.552 0 0 0 14.848 5.12 25.088 25.088 0 0 0 20.992-10.752l87.04-120.832a26.112 26.112 0 0 0-5.632-35.84l-210.944-153.6a23.552 23.552 0 0 0-14.848-5.12z" fill="#B6BDCB" p-id="5390"></path><path d="M943.616 436.224a18.944 18.944 0 0 1 19.456 16.896 18.944 18.944 0 0 1-3.584 14.336L768 736.768l-3.584 4.096a28.672 28.672 0 0 1-23.552 12.8H327.68l-14.848 20.992-22.528 31.232-98.816-71.68 136.704-188.928a59.392 59.392 0 0 1 51.2-25.088H665.6a22.528 22.528 0 1 1 0 44.544h-113.152a69.12 69.12 0 0 0-71.68 67.072 67.584 67.584 0 0 0 73.216 65.536h187.392l15.36-20.992 170.496-236.544a21.504 21.504 0 0 1 16.384-8.192m0-51.2A71.68 71.68 0 0 0 885.76 409.6L716.8 650.752h-163.328c-3.072 0-21.504 0-21.504-14.336s22.016-15.872 22.016-15.872H665.6a73.728 73.728 0 1 0 0-146.944H377.344a110.592 110.592 0 0 0-90.624 46.08l-166.912 230.4 181.76 131.584 51.2-72.192h379.392a79.872 79.872 0 0 0 66.048-35.328s2.56 0 3.584-3.072l197.632-273.92a71.168 71.168 0 0 0-15.872-99.328 72.704 72.704 0 0 0-41.472-13.312zM474.112 102.4l102.4 10.752-71.68 77.824-108.032-13.824L474.112 102.4m-10.24-51.2a20.48 20.48 0 0 0-14.848 6.144L316.416 182.272a22.016 22.016 0 0 0 12.8 37.888l182.784 23.04h2.56a20.992 20.992 0 0 0 15.872-7.168l121.344-127.488a24.064 24.064 0 0 0-14.848-40.448L465.92 51.2z" fill="#B6BDCB" p-id="5391"></path><path d="M578.048 436.224l-173.056-15.36a27.136 27.136 0 0 1-22.016-16.896L314.88 215.04a25.6 25.6 0 1 1 48.128-16.896l60.416 173.056 117.248 10.24L496.128 256a25.6 25.6 0 1 1 51.2-16.896l57.344 164.352a26.624 26.624 0 0 1-4.096 24.064 25.088 25.088 0 0 1-22.528 8.704z" fill="#B6BDCB" p-id="5392"></path><path d="M578.048 436.224h-6.144a26.112 26.112 0 0 1-18.432-16.384L488.448 231.936a26.112 26.112 0 0 1 15.872-32.768 25.6 25.6 0 0 1 32.256 15.872l51.2 149.504 85.504-80.896L614.4 110.592a25.6 25.6 0 0 1 48.64-16.896l65.536 188.928a24.576 24.576 0 0 1-6.656 27.136l-126.464 119.296a25.088 25.088 0 0 1-17.408 7.168z" fill="#B6BDCB" p-id="5393"></path></svg>