<?xml version="1.0" standalone="no"?><!DOCTYPE svg PUBLIC "-//W3C//DTD SVG 1.1//EN" "http://www.w3.org/Graphics/SVG/1.1/DTD/svg11.dtd"><svg t="1608630182374" class="icon" viewBox="0 0 1024 1024" version="1.1" xmlns="http://www.w3.org/2000/svg" p-id="4899" xmlns:xlink="http://www.w3.org/1999/xlink" width="200" height="200"><defs><style type="text/css"></style></defs><path d="M511.999488 76.799923A179.199821 179.199821 0 1 1 333.311667 255.999744 179.199821 179.199821 0 0 1 511.999488 76.799923M511.999488 0a255.999744 255.999744 0 1 0 255.999744 255.999744 255.999744 255.999744 0 0 0-255.999744-255.999744z" fill="#BEC9D7" p-id="4900"></path><path d="M883.199117 1023.998976H141.311859A140.799859 140.799859 0 0 1 0 883.199117a435.199565 435.199565 0 0 1 435.199565-435.199565h153.599846a435.711564 435.711564 0 0 1 435.199565 435.199565A141.311859 141.311859 0 0 1 883.199117 1023.998976zM435.199565 524.799475a358.399642 358.399642 0 0 0-358.399642 358.399642 63.999936 63.999936 0 0 0 64.511936 63.999936h741.887258a63.999936 63.999936 0 0 0 64.511935-63.999936 358.399642 358.399642 0 0 0-358.399641-358.399642z" fill="#BEC9D7" p-id="4901"></path><path d="M511.999488 595.455405a38.399962 38.399962 0 0 0 0 76.799923 38.399962 38.399962 0 0 0 0-76.799923z" fill="#BEC9D7" p-id="4902"></path><path d="M511.999488 621.055379L460.799539 819.199181l51.199949 45.055955 51.199949-45.055955-51.199949-198.143802z" fill="#BEC9D7" p-id="4903"></path></svg>