<?xml version="1.0" standalone="no"?><!DOCTYPE svg PUBLIC "-//W3C//DTD SVG 1.1//EN" "http://www.w3.org/Graphics/SVG/1.1/DTD/svg11.dtd"><svg t="1608630189133" class="icon" viewBox="0 0 1024 1024" version="1.1" xmlns="http://www.w3.org/2000/svg" p-id="5157" xmlns:xlink="http://www.w3.org/1999/xlink" width="200" height="200"><defs><style type="text/css"></style></defs><path d="M512.511487 255.999744m-255.999744 0a255.999744 255.999744 0 1 0 511.999488 0 255.999744 255.999744 0 1 0-511.999488 0Z" fill="#FFFFFF" p-id="5158"></path><path d="M511.999488 76.799923A179.199821 179.199821 0 1 1 333.311667 255.999744 179.199821 179.199821 0 0 1 511.999488 76.799923M511.999488 0a255.999744 255.999744 0 1 0 255.999744 255.999744 255.999744 255.999744 0 0 0-255.999744-255.999744z" fill="#FFFFFF" p-id="5159"></path><path d="M435.199565 486.399514h153.599846a396.799603 396.799603 0 0 1 396.799603 396.799603 102.399898 102.399898 0 0 1-102.399897 102.399897H141.311859a102.399898 102.399898 0 0 1-102.399898-102.399897A396.799603 396.799603 0 0 1 435.199565 486.399514z" fill="#FFFFFF" p-id="5160"></path><path d="M883.199117 1023.998976H141.311859A140.799859 140.799859 0 0 1 0 883.199117a435.199565 435.199565 0 0 1 435.199565-435.199565h153.599846a435.711564 435.711564 0 0 1 435.199565 435.199565A141.311859 141.311859 0 0 1 883.199117 1023.998976zM435.199565 524.799475a358.399642 358.399642 0 0 0-358.399642 358.399642 63.999936 63.999936 0 0 0 64.511936 63.999936h741.887258a63.999936 63.999936 0 0 0 64.511935-63.999936 358.399642 358.399642 0 0 0-358.399641-358.399642z" fill="#FFFFFF" p-id="5161"></path><path d="M512.511487 633.855366m-38.399961 0a38.399962 38.399962 0 1 0 76.799923 0 38.399962 38.399962 0 1 0-76.799923 0Z" fill="#006FE6" p-id="5162"></path><path d="M511.999488 621.055379L460.799539 819.199181l51.199949 45.055955 51.199949-45.055955-51.199949-198.143802z" fill="#006FE6" p-id="5163"></path></svg>