<?xml version="1.0" standalone="no"?><!DOCTYPE svg PUBLIC "-//W3C//DTD SVG 1.1//EN" "http://www.w3.org/Graphics/SVG/1.1/DTD/svg11.dtd"><svg t="1600409027258" class="icon" viewBox="0 0 1024 1024" version="1.1" xmlns="http://www.w3.org/2000/svg" p-id="1404" xmlns:xlink="http://www.w3.org/1999/xlink" width="200" height="200"><defs><style type="text/css"></style></defs><path d="M658.285714 109.714286H365.714286a37.302857 37.302857 0 0 1-36.571429-36.571429 36.571429 36.571429 0 0 1 36.571429-36.571428h292.571428a36.571429 36.571429 0 0 1 36.571429 36.571428 36.571429 36.571429 0 0 1-36.571429 36.571429zM987.428571 237.714286H36.571429a37.302857 37.302857 0 0 1-36.571429-36.571429 36.571429 36.571429 0 0 1 36.571429-36.571428h950.857142a36.571429 36.571429 0 0 1 36.571429 36.571428 36.571429 36.571429 0 0 1-36.571429 36.571429z"  p-id="1405"></path><path d="M804.571429 237.714286V877.714286a73.142857 73.142857 0 0 1-73.142858 73.142857H292.571429a73.142857 73.142857 0 0 1-73.142858-73.142857V237.714286h585.142858m73.142857-73.142857H146.285714V877.714286a146.285714 146.285714 0 0 0 146.285715 146.285714h438.857142a146.285714 146.285714 0 0 0 146.285715-146.285714V164.571429z" p-id="1406"></path><path d="M403.017143 841.142857A36.571429 36.571429 0 0 1 365.714286 804.571429V365.714286a36.571429 36.571429 0 0 1 36.571428-36.571429 36.571429 36.571429 0 0 1 36.571429 36.571429v438.857143a37.302857 37.302857 0 0 1-35.84 36.571428zM622.445714 841.142857A36.571429 36.571429 0 0 1 585.142857 804.571429V365.714286a36.571429 36.571429 0 0 1 36.571429-36.571429 36.571429 36.571429 0 0 1 36.571428 36.571429v438.857143a37.302857 37.302857 0 0 1-35.84 36.571428z"  p-id="1407"></path></svg>