<?xml version="1.0" standalone="no"?><!DOCTYPE svg PUBLIC "-//W3C//DTD SVG 1.1//EN" "http://www.w3.org/Graphics/SVG/1.1/DTD/svg11.dtd"><svg t="1608630209727" class="icon" viewBox="0 0 1024 1024" version="1.1" xmlns="http://www.w3.org/2000/svg" p-id="5804" xmlns:xlink="http://www.w3.org/1999/xlink" width="200" height="200"><defs><style type="text/css"></style></defs><path d="M512 89.088a75.776 75.776 0 0 1 38.4 10.24l299.52 173.056a77.312 77.312 0 0 1 38.4 66.56v346.112a77.312 77.312 0 0 1-38.4 66.56l-300.032 173.056a75.776 75.776 0 0 1-38.4 10.24 78.336 78.336 0 0 1-38.4-10.24l-299.52-173.056a76.288 76.288 0 0 1-38.4-66.56V338.944a76.288 76.288 0 0 1 38.4-66.56l299.52-173.056a78.336 78.336 0 0 1 38.4-10.24m0-76.8a153.6 153.6 0 0 0-76.8 20.48L135.168 204.8a153.6 153.6 0 0 0-76.8 133.12v346.112A153.6 153.6 0 0 0 135.168 819.2l299.52 173.056a153.6 153.6 0 0 0 76.8 20.48 153.6 153.6 0 0 0 76.8-20.48L888.32 819.2a153.6 153.6 0 0 0 76.8-133.12V338.944A153.6 153.6 0 0 0 888.32 204.8L588.288 32.768A153.6 153.6 0 0 0 512 12.288z" fill="#BBC5D3" p-id="5805"></path><path d="M614.4 409.6v204.8H409.6V409.6h204.8m25.6-76.8h-256a51.2 51.2 0 0 0-51.2 51.2v256a51.2 51.2 0 0 0 51.2 51.2h256a51.2 51.2 0 0 0 51.2-51.2v-256a51.2 51.2 0 0 0-51.2-51.2z" fill="#BBC5D3" p-id="5806"></path></svg>