<?xml version="1.0" standalone="no"?><!DOCTYPE svg PUBLIC "-//W3C//DTD SVG 1.1//EN" "http://www.w3.org/Graphics/SVG/1.1/DTD/svg11.dtd"><svg t="1608630193417" class="icon" viewBox="0 0 1024 1024" version="1.1" xmlns="http://www.w3.org/2000/svg" p-id="5287" xmlns:xlink="http://www.w3.org/1999/xlink" width="200" height="200"><defs><style type="text/css"></style></defs><path d="M965.12 684.544V338.432A153.6 153.6 0 0 0 888.32 204.8L588.288 32.256a153.6 153.6 0 0 0-153.6 0L135.168 204.8a153.6 153.6 0 0 0-76.8 133.12v346.112A153.6 153.6 0 0 0 135.168 819.2l299.52 173.056a153.6 153.6 0 0 0 153.6 0L888.32 819.2a153.6 153.6 0 0 0 76.8-134.656z" fill="#FFFFFF" p-id="5288"></path><path d="M614.4 409.6v204.8H409.6V409.6h204.8m25.6-76.8h-256a51.2 51.2 0 0 0-51.2 51.2v256a51.2 51.2 0 0 0 51.2 51.2h256a51.2 51.2 0 0 0 51.2-51.2v-256a51.2 51.2 0 0 0-51.2-51.2z" fill="#006FE6" p-id="5289"></path></svg>