<?xml version="1.0" standalone="no"?><!DOCTYPE svg PUBLIC "-//W3C//DTD SVG 1.1//EN" "http://www.w3.org/Graphics/SVG/1.1/DTD/svg11.dtd"><svg t="1604038390626" class="icon" viewBox="0 0 1024 1024" version="1.1" xmlns="http://www.w3.org/2000/svg" p-id="12259" xmlns:xlink="http://www.w3.org/1999/xlink" width="200" height="200"><defs><style type="text/css"></style></defs><path d="M512 73.153879a146.262417 146.262417 0 0 1 73.131208 19.745426l253.765293 146.262417a146.262417 146.262417 0 0 1 73.131209 126.516991v292.524833a146.262417 146.262417 0 0 1-73.131209 126.516991l-253.765293 146.262416a146.262417 146.262417 0 0 1-146.262416 0l-253.033981-146.262416A146.262417 146.262417 0 0 1 115.628851 658.203546V365.678713a146.262417 146.262417 0 0 1 73.131208-126.516991l250.108733-146.262417A146.262417 146.262417 0 0 1 512 73.153879m0-73.131208a219.393625 219.393625 0 0 0-109.696813 29.252483l-253.033981 146.262417A219.393625 219.393625 0 0 0 42.497642 365.678713v292.524833a219.393625 219.393625 0 0 0 109.696813 190.141142l253.033981 146.262417a219.393625 219.393625 0 0 0 219.393625 0l253.765293-146.262417a219.393625 219.393625 0 0 0 109.696813-190.141142V365.678713A219.393625 219.393625 0 0 0 877.656042 175.537571L624.622061 29.275154A219.393625 219.393625 0 0 0 512 0.022671z" fill="#9e66e4" p-id="12260"></path><path d="M629.009933 397.856444v227.438058H401.571875V397.856444H629.009933m0-73.131208H401.571875a73.131208 73.131208 0 0 0-73.131208 73.131208v227.438058a73.131208 73.131208 0 0 0 73.131208 73.131209H629.009933a73.131208 73.131208 0 0 0 73.131209-73.131209V397.856444a73.131208 73.131208 0 0 0-73.131209-73.131208z" fill="#9e66e4" p-id="12261"></path></svg>