<?xml version="1.0" standalone="no"?><!DOCTYPE svg PUBLIC "-//W3C//DTD SVG 1.1//EN" "http://www.w3.org/Graphics/SVG/1.1/DTD/svg11.dtd"><svg t="1600409048865" class="icon" viewBox="0 0 1024 1024" version="1.1" xmlns="http://www.w3.org/2000/svg" p-id="2036" xmlns:xlink="http://www.w3.org/1999/xlink" width="200" height="200"><defs><style type="text/css"></style></defs><path d="M814.811429 73.142857a131.657143 131.657143 0 0 1 95.817142 40.228572 135.314286 135.314286 0 0 1 0 192.365714L365.714286 853.577143l-249.417143 57.782857L171.154286 658.285714l547.108571-544.914285A133.12 133.12 0 0 1 814.811429 73.142857m0-73.142857a206.994286 206.994286 0 0 0-146.285715 61.44L103.862857 623.908571l-73.142857 321.097143a41.691429 41.691429 0 0 0 40.228571 50.468572h10.24l318.171429-73.142857 562.468571-563.2a209.188571 209.188571 0 0 0-146.285714-356.937143z"  p-id="2037"></path><path d="M146.432 672.768l51.712-51.712 199.68 199.68-51.785143 51.638857zM649.654857 169.545143l51.712-51.712 199.68 199.68-51.785143 51.712z"  p-id="2038"></path></svg>