<?xml version="1.0" standalone="no"?><!DOCTYPE svg PUBLIC "-//W3C//DTD SVG 1.1//EN" "http://www.w3.org/Graphics/SVG/1.1/DTD/svg11.dtd"><svg t="1608630186039" class="icon" viewBox="0 0 1024 1024" version="1.1" xmlns="http://www.w3.org/2000/svg" p-id="5027" xmlns:xlink="http://www.w3.org/1999/xlink" width="200" height="200"><defs><style type="text/css"></style></defs><path d="M870.4 76.8A76.8 76.8 0 0 1 947.2 153.6v716.8a76.8 76.8 0 0 1-76.8 76.8H153.6A76.8 76.8 0 0 1 77.312 870.4V153.6A76.8 76.8 0 0 1 153.6 76.8h716.8M870.4 0H153.6a153.6 153.6 0 0 0-153.6 153.6v716.8a153.6 153.6 0 0 0 153.6 153.6h716.8a153.6 153.6 0 0 0 153.6-153.6V153.6a153.6 153.6 0 0 0-153.6-153.6z" fill="#BEC9D7" p-id="5028"></path><path d="M0 256.512h1024v76.8H0z" fill="#BEC9D7" p-id="5029"></path><path d="M192 166.4m-38.4 0a38.4 38.4 0 1 0 76.8 0 38.4 38.4 0 1 0-76.8 0Z" fill="#BEC9D7" p-id="5030"></path><path d="M320 166.4m-38.4 0a38.4 38.4 0 1 0 76.8 0 38.4 38.4 0 1 0-76.8 0Z" fill="#BEC9D7" p-id="5031"></path><path d="M460.8 832m-38.4 0a38.4 38.4 0 1 0 76.8 0 38.4 38.4 0 1 0-76.8 0Z" fill="#BEC9D7" p-id="5032"></path><path d="M230.4 882.688A37.888 37.888 0 0 1 204.8 870.4a38.4 38.4 0 0 1 0-51.2l81.408-81.408L204.8 654.336a38.4 38.4 0 1 1 51.2-54.272l108.544 108.544a38.4 38.4 0 0 1 0 54.272L256 870.4a37.888 37.888 0 0 1-25.6 12.288z" fill="#BEC9D7" p-id="5033"></path></svg>