<?xml version="1.0" standalone="no"?><!DOCTYPE svg PUBLIC "-//W3C//DTD SVG 1.1//EN" "http://www.w3.org/Graphics/SVG/1.1/DTD/svg11.dtd"><svg t="1605580731142" class="icon" viewBox="0 0 1024 1024" version="1.1" xmlns="http://www.w3.org/2000/svg" p-id="5262" xmlns:xlink="http://www.w3.org/1999/xlink" width="200" height="200"><defs><style type="text/css"></style></defs><path d="M695.808 1024H153.6a153.6 153.6 0 0 1-153.6-153.6V153.6a153.6 153.6 0 0 1 153.6-153.6h619.52a153.6 153.6 0 0 1 153.6 153.6v705.024A166.4 166.4 0 0 1 760.832 1024z" fill="#FFFFFF" p-id="5263"></path><path d="M678.4 294.4h-512a38.4 38.4 0 0 1 0-76.8h512a38.4 38.4 0 0 1 0 76.8zM384 464.896H166.4a38.4 38.4 0 0 1 0-76.8H384a38.4 38.4 0 0 1 0 76.8zM473.6 635.904h-307.2a38.4 38.4 0 0 1 0-76.8h307.2a38.4 38.4 0 0 1 0 76.8zM268.8 806.4h-102.4a38.4 38.4 0 0 1 0-76.8h102.4a38.4 38.4 0 0 1 0 76.8zM985.6 928.768a37.888 37.888 0 0 1-28.672-13.312l-102.4-115.712a38.4 38.4 0 1 1 57.344-51.2l102.4 115.712a38.4 38.4 0 0 1-28.672 64z" fill="#006FE6" p-id="5264"></path><path d="M761.856 493.056a134.656 134.656 0 1 1-134.656 134.144 134.144 134.144 0 0 1 134.656-134.144m0-76.8A211.456 211.456 0 1 0 972.8 627.2a210.944 210.944 0 0 0-210.944-210.944z" fill="#006FE6" p-id="5265"></path></svg>