<?xml version="1.0" standalone="no"?><!DOCTYPE svg PUBLIC "-//W3C//DTD SVG 1.1//EN" "http://www.w3.org/Graphics/SVG/1.1/DTD/svg11.dtd"><svg t="1600409044265" class="icon" viewBox="0 0 1024 1024" version="1.1" xmlns="http://www.w3.org/2000/svg" p-id="1909" xmlns:xlink="http://www.w3.org/1999/xlink" width="200" height="200"><defs><style type="text/css"></style></defs><path d="M0 795.794286L0 580.754286a36.571429 36.571429 0 0 1 36.571429-36.571429 36.571429 36.571429 0 0 1 36.571428 36.571429l0 215.04a109.714286 109.714286 0 0 0 109.71428601 109.714285l658.28571398 0a109.714286 109.714286 0 0 0 109.71428601-109.714285L950.857143 580.754286a36.571429 36.571429 0 0 1 36.571428-36.571429 36.571429 36.571429 0 0 1 36.571429 36.571429l0 215.04a182.857143 182.857143 0 0 1-182.857143 182.857143l-658.285714 0a182.857143 182.857143 0 0 1-182.857143-182.857143z"  p-id="1910"></path><path d="M475.42857101 686.08L475.428571 155.794286a36.571429 36.571429 0 0 1 36.571429-36.571429 37.302857 37.302857 0 0 1 36.571429 36.571429l-1e-8 530.285714a36.571429 36.571429 0 0 1-36.57142899 36.571429 36.571429 36.571429 0 0 1-36.57142899-36.571429z"  p-id="1911"></path><path d="M274.28571399 275.017143a36.571429 36.571429 0 0 1 10.24000001-26.331429L485.668571 47.542857A38.034286 38.034286 0 0 1 512 37.30285699a36.571429 36.571429 0 0 1 25.6 10.24000001L738.742857 248.68571401a36.571429 36.571429 0 0 1 0 51.93142899 35.108571 35.108571 0 0 1-51.20000001 0L512 125.07428601l-175.54285699 175.54285699a36.571429 36.571429 0 0 1-51.93142901-1e-8 34.377143 34.377143 0 0 1-10.24000001-25.59999999z"  p-id="1912"></path></svg>