<?xml version="1.0" standalone="no"?><!DOCTYPE svg PUBLIC "-//W3C//DTD SVG 1.1//EN" "http://www.w3.org/Graphics/SVG/1.1/DTD/svg11.dtd"><svg t="1605833479301" class="icon" viewBox="0 0 1024 1024" version="1.1" xmlns="http://www.w3.org/2000/svg" p-id="3747" xmlns:xlink="http://www.w3.org/1999/xlink" width="200" height="200"><defs><style type="text/css"></style></defs><path d="M332.8 256H64A64 64 0 0 1 0 192v-128A64 64 0 0 1 64 0H332.8a64 64 0 0 1 64 64v128A64 64 0 0 1 332.8 256z m-256-76.8h243.2v-102.4H76.8zM960 256h-332.8A64 64 0 0 1 563.2 192v-128A64 64 0 0 1 627.2 0h332.8A64 64 0 0 1 1024 64v128A64 64 0 0 1 960 256zM640 179.2h307.2v-102.4h-307.2zM960 640h-332.8A64 64 0 0 1 563.2 576v-128a64 64 0 0 1 64-64h332.8A64 64 0 0 1 1024 448v128a64 64 0 0 1-64 64zM640 563.2h307.2V460.8h-307.2zM960 1024h-332.8A64 64 0 0 1 563.2 960v-128A64 64 0 0 1 627.2 768h332.8A64 64 0 0 1 1024 832v128A64 64 0 0 1 960 1024z m-320-76.8h307.2v-102.4h-307.2zM396.8 89.6H563.2v76.8H396.8zM563.2 550.4H294.4A64 64 0 0 1 230.4 486.4V256H307.2v217.6h256z" fill="#BEC9D7" p-id="3748"></path><path d="M563.2 934.4H166.4A64 64 0 0 1 102.4 870.4V256h76.8v601.6H563.2z" fill="#BEC9D7" p-id="3749"></path></svg>