<?xml version="1.0" standalone="no"?><!DOCTYPE svg PUBLIC "-//W3C//DTD SVG 1.1//EN" "http://www.w3.org/Graphics/SVG/1.1/DTD/svg11.dtd"><svg t="1604474548595" class="icon" viewBox="0 0 1024 1024" version="1.1" xmlns="http://www.w3.org/2000/svg" p-id="5697" xmlns:xlink="http://www.w3.org/1999/xlink" width="200" height="200"><defs><style type="text/css"></style></defs><path d="M793.589018 1023.960066h-563.178036A175.609151 175.609151 0 0 1 51.21797 855.006655V234.998835a175.609151 175.609151 0 0 1 179.193012-171.001331h94.204326a38.398502 38.398502 0 0 1 0 76.797005H231.434942a98.812146 98.812146 0 0 0-102.396007 94.204326V855.006655a98.300166 98.300166 0 0 0 102.396007 94.204326h563.178036a98.812146 98.812146 0 0 0 102.396007-94.204326V234.998835a98.812146 98.812146 0 0 0-102.396007-94.204326h-95.228286a38.398502 38.398502 0 0 1 0-76.797005h94.204326A175.609151 175.609151 0 0 1 972.78203 234.998835V855.006655a175.609151 175.609151 0 0 1-179.193012 168.953411z" fill="#BEC9D7" p-id="5698"></path><path d="M563.198003 422.383527H268.809484a38.398502 38.398502 0 0 1 0-76.797005H563.198003a38.398502 38.398502 0 0 1 0 76.797005zM755.190516 608.232279h-486.381032a38.398502 38.398502 0 0 1 0-76.797005h486.381032a38.398502 38.398502 0 0 1 0 76.797005zM755.190516 793.569051h-486.381032a38.398502 38.398502 0 0 1 0-76.797005h486.381032a38.398502 38.398502 0 0 1 0 76.797005zM658.938269 76.797005v51.198003H371.205491v-51.198003h287.732778m25.599002-76.797005H345.606489a51.198003 51.198003 0 0 0-51.198003 51.198003v102.396007a51.198003 51.198003 0 0 0 51.198003 51.198003h338.930782a51.198003 51.198003 0 0 0 51.198003-51.198003V51.198003a51.198003 51.198003 0 0 0-51.198003-51.198003z" fill="#BEC9D7" p-id="5699"></path></svg>