<?xml version="1.0" standalone="no"?><!DOCTYPE svg PUBLIC "-//W3C//DTD SVG 1.1//EN" "http://www.w3.org/Graphics/SVG/1.1/DTD/svg11.dtd"><svg t="1604473598086" class="icon" viewBox="0 0 1024 1024" version="1.1" xmlns="http://www.w3.org/2000/svg" p-id="3979" xmlns:xlink="http://www.w3.org/1999/xlink" width="200" height="200"><defs><style type="text/css"></style></defs><path d="M109.056 856.5333333a473.6 473.6 0 1 1 801.792 6.656M932.352 876.5013333l-43.008-28.16a448 448 0 1 0-825.344-241.152 444.416 444.416 0 0 0 67.072 235.52l-43.52 27.136a499.2 499.2 0 1 1 921.6-262.656 496.64 496.64 0 0 1-76.8 269.312z" fill="#FFFFFF" p-id="3980"></path><path d="M902.656 907.7333333H121.856a38.4 38.4 0 1 1 0-76.8h780.8a38.4 38.4 0 1 1 0 76.8z" fill="#FFFFFF" p-id="3981"></path><path d="M486.4 145.8773333m22.528 0l6.144 0q22.528 0 22.528 22.528l0 51.2q0 22.528-22.528 22.528l-6.144 0q-22.528 0-22.528-22.528l0-51.2q0-22.528 22.528-22.528Z" fill="#006FE6" p-id="3982"></path><path d="M73.962977 465.4769483m9.520744-20.417302l2.596567-5.568355q9.520744-20.417302 29.938046-10.896557l46.402958 21.638055q20.417302 9.520744 10.896558 29.938046l-2.596567 5.568355q-9.520744 20.417302-29.938046 10.896557l-46.402958-21.638055q-20.417302-9.520744-10.896558-29.938046Z" fill="#006FE6" p-id="3983"></path><path d="M928.517216 418.8883783m9.520744 20.417301l2.596567 5.568355q9.520744 20.417302-10.896558 29.938046l-46.402959 21.638055q-20.417302 9.520744-29.938046-10.896557l-2.596566-5.568355q-9.520744-20.417302 10.896557-29.938046l46.402959-21.638055q20.417302-9.520744 29.938046 10.896557Z" fill="#006FE6" p-id="3984"></path><path d="M233.063247 246.0848483m18.453858-12.92153l5.03287-3.524054q18.453857-12.92153 31.375387 5.532328l29.367114 41.940584q12.92153 18.453857-5.532328 31.375387l-5.03287 3.524054q-18.453857 12.92153-31.375387-5.532327l-29.367114-41.940585q-12.92153-18.453857 5.532328-31.375387Z" fill="#006FE6" p-id="3985"></path><path d="M757.108306 214.0450533m18.453858 12.92153l5.03287 3.524054q18.453857 12.92153 5.532327 31.375387l-29.367114 41.940585q-12.92153 18.453857-31.375387 5.532327l-5.03287-3.524054q-18.453857-12.92153-5.532327-31.375387l29.367113-41.940585q12.92153-18.453857 31.375388-5.532327Z" fill="#006FE6" p-id="3986"></path><path d="M688.128 382.4213333s-117.76 256-134.144 281.088a51.2 51.2 0 0 1-83.968-58.88c16.384-23.04 218.112-222.208 218.112-222.208z" fill="#006FE6" p-id="3987"></path></svg>