<?xml version="1.0" standalone="no"?><!DOCTYPE svg PUBLIC "-//W3C//DTD SVG 1.1//EN" "http://www.w3.org/Graphics/SVG/1.1/DTD/svg11.dtd"><svg t="1604474483570" class="icon" viewBox="0 0 1024 1024" version="1.1" xmlns="http://www.w3.org/2000/svg" p-id="5307" xmlns:xlink="http://www.w3.org/1999/xlink" width="200" height="200"><defs><style type="text/css"></style></defs><path d="M921.605683 1024H102.406093a102.399949 102.399949 0 0 1-102.399949-102.399949V281.600371A26.111987 26.111987 0 0 1 25.606131 256.000384h972.799514a25.599987 25.599987 0 0 1 25.599987 25.599987V921.600051a102.399949 102.399949 0 0 1-102.399949 102.399949z" fill="#FFFFFF" p-id="5308"></path><path d="M297.989995 0.000512h434.175783a37.375981 37.375981 0 0 1 23.039988 8.191996l255.999872 236.543882a35.327982 35.327982 0 0 1 12.799994 27.135986v25.087988a35.839982 35.839982 0 0 1-35.839982 36.351981H35.846126A35.839982 35.839982 0 0 1 0.006144 296.960364v-26.623987a34.303983 34.303983 0 0 1 10.751995-25.599987L272.390008 10.752507a35.327982 35.327982 0 0 1 25.599987-10.751995z" fill="#FFFFFF" p-id="5309"></path><path d="M665.605811 569.856227H358.405965a38.399981 38.399981 0 0 1 0-76.799962h307.199846a38.399981 38.399981 0 0 1 0 76.799962zM512.005888 301.056361a38.911981 38.911981 0 0 1-38.399981-38.39998V76.800474a38.399981 38.399981 0 0 1 76.799962 0v185.855907a38.911981 38.911981 0 0 1-38.399981 38.39998z" fill="#006FE6" p-id="5310"></path></svg>