<?xml version="1.0" standalone="no"?><!DOCTYPE svg PUBLIC "-//W3C//DTD SVG 1.1//EN" "http://www.w3.org/Graphics/SVG/1.1/DTD/svg11.dtd"><svg t="1605833499282" class="icon" viewBox="0 0 1024 1024" version="1.1" xmlns="http://www.w3.org/2000/svg" p-id="4384" xmlns:xlink="http://www.w3.org/1999/xlink" width="200" height="200"><defs><style type="text/css"></style></defs><path d="M883.2 1024H140.8A140.8 140.8 0 0 1 0 883.2V614.4a141.312 141.312 0 0 1 140.8-138.752H307.2a38.912 38.912 0 0 1 34.816 22.016l40.448 84.992h259.072l40.448-84.992a38.912 38.912 0 0 1 34.816-22.016h166.4A141.312 141.312 0 0 1 1024 614.4v266.752A140.8 140.8 0 0 1 883.2 1024z m-742.4-471.552A64 64 0 0 0 76.8 614.4v266.752a64 64 0 0 0 64 66.048h742.4a64 64 0 0 0 64-64V614.4a64 64 0 0 0-64-64h-142.336l-40.448 84.992a38.912 38.912 0 0 1-34.816 22.016H358.4a38.912 38.912 0 0 1-34.816-22.016l-40.448-84.992z" fill="#BEC9D7" p-id="4385"></path><path d="M896 493.056H819.2V294.4a62.464 62.464 0 0 0-60.416-64H265.216A62.464 62.464 0 0 0 204.8 294.4v198.656H128V294.4A138.752 138.752 0 0 1 265.216 153.6h493.568a138.752 138.752 0 0 1 137.216 140.8zM793.6 128h-563.2a38.4 38.4 0 0 1 0-76.8h563.2a38.4 38.4 0 0 1 0 76.8zM755.2 832h-486.4a38.4 38.4 0 0 1 0-76.8h486.4a38.4 38.4 0 0 1 0 76.8z" fill="#BEC9D7" p-id="4386"></path></svg>