<?xml version="1.0" standalone="no"?><!DOCTYPE svg PUBLIC "-//W3C//DTD SVG 1.1//EN" "http://www.w3.org/Graphics/SVG/1.1/DTD/svg11.dtd"><svg t="1604474391404" class="icon" viewBox="0 0 1024 1024" version="1.1" xmlns="http://www.w3.org/2000/svg" p-id="4775" xmlns:xlink="http://www.w3.org/1999/xlink" width="200" height="200"><defs><style type="text/css"></style></defs><path d="M967.68 716.8V307.2a102.4 102.4 0 0 0-51.2-88.576l-350.72-204.8a102.4 102.4 0 0 0-102.4 0l-351.232 204.8a102.4 102.4 0 0 0-51.2 88.576v409.6a102.4 102.4 0 0 0 51.2 88.576l351.232 204.8a102.4 102.4 0 0 0 102.4 0l350.72-204.8a102.4 102.4 0 0 0 51.2-88.576z" fill="#FFFFFF" p-id="4776"></path><path d="M753.664 394.752H440.32a38.4 38.4 0 0 1 0-76.8h313.344a38.4 38.4 0 0 1 0 76.8z" fill="#006FE6" p-id="4777"></path><path d="M280.064 356.352m-38.4 0a38.4 38.4 0 1 0 76.8 0 38.4 38.4 0 1 0-76.8 0Z" fill="#006FE6" p-id="4778"></path><path d="M753.664 548.352H440.32a38.4 38.4 0 0 1 0-76.8h313.344a38.4 38.4 0 0 1 0 76.8z" fill="#006FE6" p-id="4779"></path><path d="M280.064 509.952m-38.4 0a38.4 38.4 0 1 0 76.8 0 38.4 38.4 0 1 0-76.8 0Z" fill="#006FE6" p-id="4780"></path><path d="M753.664 701.952H440.32a38.4 38.4 0 0 1 0-76.8h313.344a38.4 38.4 0 0 1 0 76.8z" fill="#006FE6" p-id="4781"></path><path d="M280.064 663.552m-38.4 0a38.4 38.4 0 1 0 76.8 0 38.4 38.4 0 1 0-76.8 0Z" fill="#006FE6" p-id="4782"></path></svg>