<?xml version="1.0" standalone="no"?><!DOCTYPE svg PUBLIC "-//W3C//DTD SVG 1.1//EN" "http://www.w3.org/Graphics/SVG/1.1/DTD/svg11.dtd"><svg t="1605833520701" class="icon" viewBox="0 0 1024 1024" version="1.1" xmlns="http://www.w3.org/2000/svg" p-id="4890" xmlns:xlink="http://www.w3.org/1999/xlink" width="200" height="200"><defs><style type="text/css"></style></defs><path d="M896 467.456H819.2V268.8A62.464 62.464 0 0 0 758.784 204.8H265.216A62.464 62.464 0 0 0 204.8 268.8v198.656H128V268.8A138.752 138.752 0 0 1 265.216 128h493.568a138.752 138.752 0 0 1 137.216 140.8zM883.2 960H140.8a102.4 102.4 0 0 1-102.4-102.4v-266.752a102.4 102.4 0 0 1 102.4-102.4H307.2l51.2 106.496h307.2l51.2-106.496h166.4a102.4 102.4 0 0 1 102.4 102.4v266.752a102.4 102.4 0 0 1-102.4 102.4z" fill="#FFFFFF" p-id="4891"></path><path d="M883.2 998.4H140.8A140.8 140.8 0 0 1 0 857.6v-266.752a141.312 141.312 0 0 1 140.8-140.8H307.2a38.912 38.912 0 0 1 34.816 22.016l40.448 84.992h259.072l40.448-84.992a38.912 38.912 0 0 1 34.816-22.016h166.4A141.312 141.312 0 0 1 1024 590.848v266.752a140.8 140.8 0 0 1-140.8 140.8z m-742.4-471.552a64 64 0 0 0-64 64v266.752A64 64 0 0 0 140.8 921.6h742.4a64 64 0 0 0 64-64v-266.752a64 64 0 0 0-64-64h-142.336L700.416 614.4a38.912 38.912 0 0 1-34.816 22.016H358.4a38.912 38.912 0 0 1-34.816-22.016l-40.448-84.992zM793.6 102.4h-563.2a38.4 38.4 0 0 1 0-76.8h563.2a38.4 38.4 0 0 1 0 76.8z" fill="#FFFFFF" p-id="4892"></path><path d="M755.2 806.4h-486.4a38.4 38.4 0 0 1 0-76.8h486.4a38.4 38.4 0 0 1 0 76.8z" fill="#006FE6" p-id="4893"></path></svg>