<?xml version="1.0" standalone="no"?><!DOCTYPE svg PUBLIC "-//W3C//DTD SVG 1.1//EN" "http://www.w3.org/Graphics/SVG/1.1/DTD/svg11.dtd"><svg t="1604474443169" class="icon" viewBox="0 0 1024 1024" version="1.1" xmlns="http://www.w3.org/2000/svg" p-id="5043" xmlns:xlink="http://www.w3.org/1999/xlink" width="200" height="200"><defs><style type="text/css"></style></defs><path d="M749.056 396.8H435.2a38.4 38.4 0 0 1 0-76.8h313.856a38.4 38.4 0 1 1 0 76.8z" fill="#BEC9D7" p-id="5044"></path><path d="M512 90.112a78.336 78.336 0 0 1 38.4 10.24l300.032 173.056a77.824 77.824 0 0 1 38.4 66.56v346.112a76.8 76.8 0 0 1-38.4 66.56l-302.592 173.056a73.728 73.728 0 0 1-76.8 0L171.008 752.64a76.8 76.8 0 0 1-38.4-66.56V339.968a77.824 77.824 0 0 1 38.4-66.56L471.04 102.4a78.336 78.336 0 0 1 38.4-10.24m0-76.8a156.672 156.672 0 0 0-76.8 20.48L132.608 204.8a153.6 153.6 0 0 0-76.8 133.12v348.16a153.6 153.6 0 0 0 76.8 133.12l300.032 173.056a151.04 151.04 0 0 0 153.6 0L886.272 819.2a153.6 153.6 0 0 0 76.8-133.12V339.968A153.6 153.6 0 0 0 886.272 204.8L586.24 33.792A156.672 156.672 0 0 0 512 13.312z" fill="#BBC5D3" p-id="5045"></path><path d="M275.456 358.4m-38.4 0a38.4 38.4 0 1 0 76.8 0 38.4 38.4 0 1 0-76.8 0Z" fill="#BCC7D5" p-id="5046"></path><path d="M749.056 550.4H435.2a38.4 38.4 0 0 1 0-76.8h313.856a38.4 38.4 0 1 1 0 76.8z" fill="#BEC9D7" p-id="5047"></path><path d="M275.456 512m-38.4 0a38.4 38.4 0 1 0 76.8 0 38.4 38.4 0 1 0-76.8 0Z" fill="#BCC7D5" p-id="5048"></path><path d="M749.056 704H435.2a38.4 38.4 0 0 1 0-76.8h313.856a38.4 38.4 0 1 1 0 76.8z" fill="#BEC9D7" p-id="5049"></path><path d="M275.456 665.6m-38.4 0a38.4 38.4 0 1 0 76.8 0 38.4 38.4 0 1 0-76.8 0Z" fill="#BCC7D5" p-id="5050"></path></svg>