<?xml version="1.0" standalone="no"?><!DOCTYPE svg PUBLIC "-//W3C//DTD SVG 1.1//EN" "http://www.w3.org/Graphics/SVG/1.1/DTD/svg11.dtd"><svg t="1604474645278" class="icon" viewBox="0 0 1025 1024" version="1.1" xmlns="http://www.w3.org/2000/svg" p-id="6214" xmlns:xlink="http://www.w3.org/1999/xlink" width="200.1953125" height="200"><defs><style type="text/css"></style></defs><path d="M677.888 1024H180.224A180.736 180.736 0 0 1 0 843.264V180.736A180.736 180.736 0 0 1 180.224 0h568.832a180.736 180.736 0 0 1 180.224 180.736V322.56a38.4 38.4 0 1 1-76.8 0V180.736a102.4 102.4 0 0 0-102.4-102.4H180.224a102.4 102.4 0 0 0-102.4 102.4v662.528a102.4 102.4 0 0 0 102.4 102.4h497.664a38.4 38.4 0 1 1 0 76.8z" fill="#BEC9D7" p-id="6215"></path><path d="M678.4 294.4h-512a38.4 38.4 0 0 1 0-76.8h512a38.4 38.4 0 0 1 0 76.8zM384 464.896H166.4a38.4 38.4 0 0 1 0-76.8H384a38.4 38.4 0 0 1 0 76.8zM473.6 635.904h-307.2a38.4 38.4 0 0 1 0-76.8h307.2a38.4 38.4 0 0 1 0 76.8zM268.8 806.4h-102.4a38.4 38.4 0 0 1 0-76.8h102.4a38.4 38.4 0 0 1 0 76.8zM985.6 928.768a37.376 37.376 0 0 1-28.672-13.312l-102.4-115.712a38.4 38.4 0 0 1 3.072-54.272 38.912 38.912 0 0 1 54.272 3.584l102.4 115.712a38.4 38.4 0 0 1-3.584 56.832 36.864 36.864 0 0 1-25.088 7.168z" fill="#BEC9D7" p-id="6216"></path><path d="M761.856 493.056a134.656 134.656 0 1 1-134.656 134.144 134.144 134.144 0 0 1 134.656-134.144m0-76.8A211.456 211.456 0 1 0 972.8 627.2a210.944 210.944 0 0 0-210.944-210.944z" fill="#BEC9D7" p-id="6217"></path></svg>