<?xml version="1.0" standalone="no"?><!DOCTYPE svg PUBLIC "-//W3C//DTD SVG 1.1//EN" "http://www.w3.org/Graphics/SVG/1.1/DTD/svg11.dtd"><svg t="1604474315556" class="icon" viewBox="0 0 1024 1024" version="1.1" xmlns="http://www.w3.org/2000/svg" p-id="4644" xmlns:xlink="http://www.w3.org/1999/xlink" width="200" height="200"><defs><style type="text/css"></style></defs><path d="M775.167474 497.663005A245.759508 245.759508 0 1 1 870.399283 25.08795a38.911922 38.911922 0 0 1 23.039954 28.159944 38.399923 38.399923 0 0 1-10.751978 34.303931l-108.543783 109.055782 55.807888 55.807888 109.567781-108.031784a37.887924 37.887924 0 0 1 34.81593-10.239979 38.399923 38.399923 0 0 1 27.647945 22.527955 245.24751 245.24751 0 0 1-226.815546 340.991318z m0-414.719171a166.399667 166.399667 0 0 0-119.295762 51.199898 168.959662 168.959662 0 0 0 0 239.103522 174.079652 174.079652 0 0 0 239.103522 0 169.471661 169.471661 0 0 0 51.199898-124.415752l-89.599821 84.99183a38.399923 38.399923 0 0 1-54.271892 0l-109.56778-110.079779a37.887924 37.887924 0 0 1 0-54.271892l86.527826-86.527827z" fill="#BEC9D7" p-id="4645"></path><path d="M124.928774 1023.997952a63.999872 63.999872 0 0 1-45.567909-18.943962l-56.319887-56.319887a63.999872 63.999872 0 0 1 0-90.623819L555.007914 325.11935a38.399923 38.399923 0 0 1 54.271891 0l92.671815 92.671814a38.399923 38.399923 0 0 1 0 54.271892L169.984684 1004.029992a61.951876 61.951876 0 0 1-45.05591 19.96796z m-38.399923-120.319759l38.399923 38.399923 495.615009-496.127008-38.399923-38.399923zM226.81657 415.743169a66.047868 66.047868 0 0 1-45.567908-18.943963L22.01698 237.567525a63.999872 63.999872 0 0 1 0-90.623819l51.199898-51.199897a63.999872 63.999872 0 0 1 90.623818 0L322.560379 255.999488a63.999872 63.999872 0 0 1 0 90.623819l-51.199898 51.199897a63.999872 63.999872 0 0 1-44.543911 17.919965zM85.504853 191.999616l141.311717 141.311717 32.255936-32.255935L117.760788 159.743681z" fill="#BEC9D7" p-id="4646"></path><path d="M346.112332 460.799078a37.887924 37.887924 0 0 1-27.135946-11.263977L248.320527 376.831246A38.399923 38.399923 0 0 1 302.592419 322.559355l70.655859 70.655859a38.399923 38.399923 0 0 1 0 54.271891 37.887924 37.887924 0 0 1-27.135946 13.311973zM835.071354 1023.997952a63.999872 63.999872 0 0 1-45.567909-18.943962l-159.231682-159.231682a63.999872 63.999872 0 0 1 0-90.623818l51.199898-51.199898a63.999872 63.999872 0 0 1 90.623819 0l159.231681 159.743681a63.487873 63.487873 0 0 1 0 90.111819l-51.199897 51.199898a61.951876 61.951876 0 0 1-45.05591 18.943962z m-141.311718-223.231554l141.311718 141.311718 32.767934-32.767935L726.527571 767.998464z m182.783635 117.759765z" fill="#BEC9D7" p-id="4647"></path><path d="M677.375669 790.01442a37.887924 37.887924 0 0 1-27.135945-11.263978l-70.655859-70.655858a38.399923 38.399923 0 0 1 54.271891-54.271892l70.655859 70.655859a38.399923 38.399923 0 0 1 0 54.271891 37.375925 37.375925 0 0 1-27.135946 11.263978z" fill="#BEC9D7" p-id="4648"></path></svg>