<?xml version="1.0" standalone="no"?><!DOCTYPE svg PUBLIC "-//W3C//DTD SVG 1.1//EN" "http://www.w3.org/Graphics/SVG/1.1/DTD/svg11.dtd"><svg t="1605833524691" class="icon" viewBox="0 0 1024 1024" version="1.1" xmlns="http://www.w3.org/2000/svg" p-id="5017" xmlns:xlink="http://www.w3.org/1999/xlink" width="200" height="200"><defs><style type="text/css"></style></defs><path d="M51.2 0m102.4 0l716.8 0q102.4 0 102.4 102.4l0 819.2q0 102.4-102.4 102.4l-716.8 0q-102.4 0-102.4-102.4l0-819.2q0-102.4 102.4-102.4Z" fill="#FFFFFF" p-id="5018"></path><path d="M755.2 332.8h-153.6a38.4 38.4 0 0 1 0-76.8h153.6a38.4 38.4 0 0 1 0 76.8zM755.2 495.104h-486.4a38.4 38.4 0 0 1 0-76.8h486.4a38.4 38.4 0 0 1 0 76.8zM755.2 656.896h-486.4a38.4 38.4 0 1 1 0-76.8h486.4a38.4 38.4 0 0 1 0 76.8zM755.2 819.2h-486.4a38.4 38.4 0 0 1 0-76.8h486.4a38.4 38.4 0 0 1 0 76.8zM325.632 358.4a37.888 37.888 0 0 1-27.136-11.264L241.664 292.352a38.4 38.4 0 1 1 54.272-54.272l29.696 29.696 90.112-90.112a39.424 39.424 0 0 1 54.784 0 38.4 38.4 0 0 1 0 54.272l-117.76 117.248a37.888 37.888 0 0 1-27.136 9.216z" fill="#006FE6" p-id="5019"></path></svg>