<?xml version="1.0" standalone="no"?><!DOCTYPE svg PUBLIC "-//W3C//DTD SVG 1.1//EN" "http://www.w3.org/Graphics/SVG/1.1/DTD/svg11.dtd"><svg t="1604474476207" class="icon" viewBox="0 0 1024 1024" version="1.1" xmlns="http://www.w3.org/2000/svg" p-id="5177" xmlns:xlink="http://www.w3.org/1999/xlink" width="200" height="200"><defs><style type="text/css"></style></defs><path d="M665.605811 569.856227H358.405965a38.399981 38.399981 0 0 1 0-76.799962h307.199846a38.399981 38.399981 0 0 1 0 76.799962zM512.005888 301.056361a38.911981 38.911981 0 0 1-38.399981-38.39998V76.800474a38.399981 38.399981 0 0 1 76.799962 0v185.855907a38.911981 38.911981 0 0 1-38.399981 38.39998z" fill="#BBC5D3" p-id="5178"></path><path d="M947.20567 332.800346V870.400077a76.799962 76.799962 0 0 1-76.799961 76.799961H153.606067A76.799962 76.799962 0 0 1 76.806106 870.400077V332.800346h870.399564m51.199975-76.799962H25.606131a26.111987 26.111987 0 0 0-25.599987 25.599987V870.400077a153.599923 153.599923 0 0 0 153.599923 153.599923h716.799642a153.599923 153.599923 0 0 0 153.599923-153.599923V281.600371a25.599987 25.599987 0 0 0-25.599987-25.599987z" fill="#BBC5D3" p-id="5179"></path><path d="M716.805786 76.800474L910.853689 256.000384H112.646088l201.215899-179.19991H716.805786m15.359992-76.799962H297.989995a35.327982 35.327982 0 0 0-25.599987 10.751995L10.758139 244.73639a34.303983 34.303983 0 0 0-10.751995 25.599987v26.623987a35.839982 35.839982 0 0 0 35.839982 36.351981h952.319524a35.839982 35.839982 0 0 0 35.839982-36.351981v-25.087988a35.327982 35.327982 0 0 0-12.799994-27.135986l-255.999872-236.543882A37.375981 37.375981 0 0 0 732.165778 0.000512z" fill="#BBC5D3" p-id="5180"></path></svg>