<?xml version="1.0" standalone="no"?><!DOCTYPE svg PUBLIC "-//W3C//DTD SVG 1.1//EN" "http://www.w3.org/Graphics/SVG/1.1/DTD/svg11.dtd"><svg t="1604474310985" class="icon" viewBox="0 0 1024 1024" version="1.1" xmlns="http://www.w3.org/2000/svg" p-id="4507" xmlns:xlink="http://www.w3.org/1999/xlink" width="200" height="200"><defs><style type="text/css"></style></defs><path d="M578.7136 352.768l92.672 92.672L139.264 977.664a25.6 25.6 0 0 1-36.1984 0L46.4896 921.1904a25.6 25.6 0 0 1 0-36.1984L578.7136 352.768z" fill="#FFFFFF" p-id="4508"></path><path d="M121.344 1010.176a51.2 51.2 0 0 1-35.84-14.848l-56.832-56.32a51.2 51.2 0 0 1 0-72.704L579.072 316.416l129.024 129.024L157.696 995.328a51.2 51.2 0 0 1-36.352 14.848z m0-51.2l-18.944 18.432 17.92-18.432z m457.728-570.368l-512 512 56.32 56.32 512-512z" fill="#FFFFFF" p-id="4509"></path><path d="M605.8496 379.904l38.4 38.4L110.2336 952.32a22.528 22.528 0 0 1-31.8464 0l-6.5536-6.5024a22.528 22.528 0 0 1 0-31.8976l534.016-534.016z" fill="#006FE6" p-id="4510"></path><path d="M114.907626 105.693891m18.101934 18.101933l159.297016 159.297016q18.101934 18.101934 0 36.203867l-50.685415 50.685414q-18.101934 18.101934-36.203867 0l-159.297015-159.297015q-18.101934-18.101934 0-36.203867l50.685414-50.685415q18.101934-18.101934 36.203867 0Z" fill="#FFFFFF" p-id="4511"></path><path d="M223.232 402.944a51.2 51.2 0 0 1-36.352-14.848L27.648 228.864a51.2 51.2 0 0 1 0-72.704l51.2-51.2A51.2 51.2 0 0 1 153.6 105.472l156.672 159.232a51.2 51.2 0 0 1 0 72.704l-51.2 51.2a51.2 51.2 0 0 1-35.84 14.336z m0-51.2z m-108.544-209.92l-51.2 51.2 159.744 158.72 51.2-51.2z" fill="#FFFFFF" p-id="4512"></path><path d="M343.04 460.8a37.888 37.888 0 0 1-27.136-10.752L245.248 377.344a38.4 38.4 0 0 1 54.272-54.272l70.656 70.144a39.424 39.424 0 0 1 0 54.784 39.424 39.424 0 0 1-27.136 12.8z" fill="#FFFFFF" p-id="4513"></path><path d="M831.762805 996.642109m-18.101934-18.101933l-159.297016-159.297016q-18.101934-18.101934 0-36.203867l50.685414-50.685414q18.101934-18.101934 36.203868 0l159.297015 159.297015q18.101934 18.101934 0 36.203867l-50.685414 50.685415q-18.101934 18.101934-36.203867 0Z" fill="#FFFFFF" p-id="4514"></path><path d="M831.488 1011.2a51.2 51.2 0 0 1-35.84-14.848l-159.232-159.232a51.2 51.2 0 0 1 0-72.192l51.2-51.2a51.2 51.2 0 0 1 72.192 0l159.232 159.744a51.2 51.2 0 0 1 0 72.192l-51.2 51.2a51.2 51.2 0 0 1-36.352 14.336z m-108.544-261.12l-51.2 51.2 159.232 159.232 51.2-51.2z m0 0z" fill="#FFFFFF" p-id="4515"></path><path d="M674.304 790.528a39.424 39.424 0 0 1-27.136-11.264l-70.656-70.656a38.4 38.4 0 0 1 0-54.272 37.888 37.888 0 0 1 54.272 0l70.656 70.656a38.4 38.4 0 0 1 0 54.272 40.448 40.448 0 0 1-27.136 11.264zM963.072 172.032a204.8 204.8 0 1 1-110.592-111.104L716.8 196.608 826.368 307.2z" fill="#FFFFFF" p-id="4516"></path><path d="M772.096 485.376a233.472 233.472 0 0 1-164.864-397.824 231.424 231.424 0 0 1 256-51.2l35.328 14.848-145.92 145.408 73.728 73.728L972.8 126.976l14.336 34.816a232.96 232.96 0 0 1-214.528 323.584z m0-415.232a179.2 179.2 0 0 0-128 51.2 181.76 181.76 0 0 0 0 256 186.368 186.368 0 0 0 256 0 181.248 181.248 0 0 0 51.2-161.28l-124.416 122.88-146.432-142.336 123.392-123.392a172.032 172.032 0 0 0-32.256-3.072z" fill="#FFFFFF" p-id="4517"></path></svg>