<?xml version="1.0" standalone="no"?><!DOCTYPE svg PUBLIC "-//W3C//DTD SVG 1.1//EN" "http://www.w3.org/Graphics/SVG/1.1/DTD/svg11.dtd"><svg t="1604474599314" class="icon" viewBox="0 0 1024 1024" version="1.1" xmlns="http://www.w3.org/2000/svg" p-id="5955" xmlns:xlink="http://www.w3.org/1999/xlink" width="200" height="200"><defs><style type="text/css"></style></defs><path d="M53.94831 6.107356m101.789265 0l712.52485 0q101.789264 0 101.789265 101.789264l0 814.314116q0 101.789264-101.789265 101.789264l-712.52485 0q-101.789264 0-101.789265-101.789264l0-814.314116q0-101.789264 101.789265-101.789264Z" fill="#FFFFFF" p-id="5956"></path><path d="M753.749503 337.431412h-152.683897a38.170974 38.170974 0 0 1 0-76.341949h152.683897a38.170974 38.170974 0 0 1 0 76.341949zM753.749503 498.258449h-483.499006a38.170974 38.170974 0 0 1 0-76.341948h483.499006a38.170974 38.170974 0 0 1 0 76.341948zM753.749503 661.630219h-483.499006a38.170974 38.170974 0 0 1 0-76.341949h483.499006a38.170974 38.170974 0 0 1 0 76.341949zM753.749503 820.930417h-483.499006a38.170974 38.170974 0 1 1 0-76.341948h483.499006a38.170974 38.170974 0 1 1 0 76.341948zM326.743539 364.914513A37.662028 37.662028 0 0 1 299.769384 356.262425L243.276342 297.224652a38.170974 38.170974 0 0 1 0-53.94831 37.662028 37.662028 0 0 1 53.94831 0l29.518887 29.518887 90.083499-90.083499a38.170974 38.170974 0 0 1 53.94831 0 39.188867 39.188867 0 0 1 0 54.457256L353.717694 356.262425a37.153082 37.153082 0 0 1-26.974155 8.652088z" fill="#006FE6" p-id="5957"></path></svg>