<?xml version="1.0" standalone="no"?><!DOCTYPE svg PUBLIC "-//W3C//DTD SVG 1.1//EN" "http://www.w3.org/Graphics/SVG/1.1/DTD/svg11.dtd"><svg t="1605833516935" class="icon" viewBox="0 0 1024 1024" version="1.1" xmlns="http://www.w3.org/2000/svg" p-id="4764" xmlns:xlink="http://www.w3.org/1999/xlink" width="200" height="200"><defs><style type="text/css"></style></defs><path d="M819.2 76.8A76.8 76.8 0 0 1 896.512 153.6v716.8A76.8 76.8 0 0 1 819.2 947.2H204.8A76.8 76.8 0 0 1 128.512 870.4V153.6A76.8 76.8 0 0 1 204.8 76.8h614.4M819.2 0H204.8a153.6 153.6 0 0 0-153.6 153.6v716.8a153.6 153.6 0 0 0 153.6 153.6h614.4a153.6 153.6 0 0 0 153.6-153.6V153.6a153.6 153.6 0 0 0-153.6-153.6z" fill="#BEC9D7" p-id="4765"></path><path d="M755.712 332.8h-153.6a38.4 38.4 0 1 1 0-76.8h153.6a38.4 38.4 0 0 1 0 76.8zM755.712 495.104h-486.4a38.4 38.4 0 0 1 0-76.8h486.4a38.4 38.4 0 0 1 0 76.8zM755.712 656.896h-486.4a38.4 38.4 0 0 1 0-76.8h486.4a38.4 38.4 0 0 1 0 76.8zM755.712 819.2h-486.4a38.4 38.4 0 1 1 0-76.8h486.4a38.4 38.4 0 0 1 0 76.8zM326.144 358.4a37.376 37.376 0 0 1-27.136-11.264L242.176 292.352a37.888 37.888 0 0 1 0-54.272 38.4 38.4 0 0 1 54.272 0l29.696 29.696 90.112-90.112a38.4 38.4 0 1 1 54.272 54.272L353.28 349.184a37.888 37.888 0 0 1-27.136 9.216z" fill="#BEC9D7" p-id="4766"></path></svg>