<?xml version="1.0" standalone="no"?><!DOCTYPE svg PUBLIC "-//W3C//DTD SVG 1.1//EN" "http://www.w3.org/Graphics/SVG/1.1/DTD/svg11.dtd"><svg t="1605833529891" class="icon" viewBox="0 0 1024 1024" version="1.1" xmlns="http://www.w3.org/2000/svg" p-id="5143" xmlns:xlink="http://www.w3.org/1999/xlink" width="200" height="200"><defs><style type="text/css"></style></defs><path d="M409.6 1024H180.224A180.736 180.736 0 0 1 0 843.264V180.736A180.736 180.736 0 0 1 180.224 0h568.832a180.736 180.736 0 0 1 180.224 180.736V409.6a38.4 38.4 0 0 1-76.8 0V180.736a102.4 102.4 0 0 0-102.4-102.4H180.224a102.4 102.4 0 0 0-102.4 102.4v662.528a102.4 102.4 0 0 0 102.4 102.4H409.6A38.4 38.4 0 0 1 409.6 1024z" fill="#FFFFFF" p-id="5144"></path><path d="M678.4 294.4h-512a38.4 38.4 0 0 1 0-76.8h512a38.4 38.4 0 0 1 0 76.8zM384 464.896H166.4a38.4 38.4 0 0 1 0-76.8H384a38.4 38.4 0 0 1 0 76.8zM448 635.904h-281.6a38.4 38.4 0 0 1 0-76.8h281.6a38.4 38.4 0 0 1 0 76.8zM268.8 806.4h-102.4a38.4 38.4 0 0 1 0-76.8h102.4a38.4 38.4 0 0 1 0 76.8z" fill="#FFFFFF" p-id="5145"></path><path d="M768 768m-256 0a256 256 0 1 0 512 0 256 256 0 1 0-512 0Z" fill="#FFFFFF" p-id="5146"></path><path d="M768 588.8a179.2 179.2 0 1 1-179.2 179.2 179.2 179.2 0 0 1 179.2-179.2m0-76.8a256 256 0 1 0 256 256 256 256 0 0 0-256-256z" fill="#FFFFFF" p-id="5147"></path><path d="M857.6 819.2h-102.4a38.912 38.912 0 0 1-38.4-38.4v-102.4a38.4 38.4 0 0 1 76.8 0v64h64a38.4 38.4 0 0 1 0 76.8z" fill="#006FE6" p-id="5148"></path></svg>