<?xml version="1.0" standalone="no"?><!DOCTYPE svg PUBLIC "-//W3C//DTD SVG 1.1//EN" "http://www.w3.org/Graphics/SVG/1.1/DTD/svg11.dtd"><svg t="1604038407198" class="icon" viewBox="0 0 1024 1024" version="1.1" xmlns="http://www.w3.org/2000/svg" p-id="12637" xmlns:xlink="http://www.w3.org/1999/xlink" width="200" height="200"><defs><style type="text/css"></style></defs><path d="M778.970316 499.565001a247.222504 247.222504 0 0 1-173.348324-73.142753A245.028221 245.028221 0 0 1 877.713032 28.525674a35.108521 35.108521 0 0 1 21.942826 26.33139 37.302804 37.302804 0 0 1-10.239986 32.914239L775.313178 198.21686l58.514202 59.245629L946.467219 146.285505a35.108521 35.108521 0 0 1 32.182811-10.239985 39.497086 39.497086 0 0 1 27.062819 21.942826A245.759649 245.759649 0 0 1 950.855784 427.885103a247.953931 247.953931 0 0 1-171.885468 71.679898z m0-417.645118A171.885469 171.885469 0 1 0 950.855784 245.028221l-91.42844 89.965586a36.571376 36.571376 0 0 1-51.199927 0L697.78186 224.548251a36.571376 36.571376 0 0 1 0-51.931355l89.965586-89.965586z" fill="#dc81ac" p-id="12638"></path><path d="M125.074107 1023.998537a73.142753 73.142753 0 0 1-51.931354-21.942826l-41.691369-41.691369a73.142753 73.142753 0 0 1 0-103.131281L559.542058 329.142387a36.571376 36.571376 0 0 1 51.199927 0l93.622723 93.622723a36.571376 36.571376 0 0 1 10.239985 25.599964 38.034231 38.034231 0 0 1-10.239985 26.331391L176.274034 1002.055711a73.142753 73.142753 0 0 1-51.199927 21.942826z m0-73.142753zM585.142021 407.405132l-501.759283 501.759283 41.691369 40.959942 501.759283-501.759283zM227.473961 412.525125a73.142753 73.142753 0 0 1-51.931355-21.211398l-146.285505-146.285506A73.142753 73.142753 0 0 1 30.719956 146.285505l35.839949-35.839948a73.142753 73.142753 0 0 1 103.131281 0l146.285505 146.285505a73.142753 73.142753 0 0 1 0 103.862709l-35.839948 35.839948a73.142753 73.142753 0 0 1-52.662782 16.091406z m0-73.142753z m-109.714129-180.662599l-35.839949 35.839949 146.285505 146.285505 35.839949-35.839948z" fill="#dc81ac" p-id="12639"></path><path d="M347.428075 460.067914a34.377094 34.377094 0 0 1-25.599963-10.239985l-73.142753-73.142753a36.571376 36.571376 0 0 1 0-51.931354 35.108521 35.108521 0 0 1 51.199927 0l73.142753 73.142752a36.571376 36.571376 0 0 1 0 51.931355 33.645666 33.645666 0 0 1-25.599964 10.239985zM839.6788 1023.998537a73.142753 73.142753 0 0 1-51.931354-21.211398l-146.285505-146.285505a73.142753 73.142753 0 0 1 0-103.131282l35.108521-35.839948a73.142753 73.142753 0 0 1 103.862709 0l146.285505 146.285505a73.142753 73.142753 0 0 1 0 103.862709l-35.839949 35.839948a73.142753 73.142753 0 0 1-51.199927 20.479971zM731.427527 770.924613l-37.302804 33.645666 146.285505 146.285505 35.108521-35.839948z m26.33139-26.331391l-26.33139 26.331391z" fill="#dc81ac" p-id="12640"></path><path d="M680.959027 793.598866a36.571376 36.571376 0 0 1-22.674253-10.239985l-73.142753-73.142753A37.302804 37.302804 0 0 1 585.142021 658.284774a36.571376 36.571376 0 0 1 51.931355 0l73.142752 73.142753a36.571376 36.571376 0 0 1-25.599963 62.171339z" fill="#dc81ac" p-id="12641"></path></svg>