<?xml version="1.0" standalone="no"?><!DOCTYPE svg PUBLIC "-//W3C//DTD SVG 1.1//EN" "http://www.w3.org/Graphics/SVG/1.1/DTD/svg11.dtd"><svg t="1604657381470" class="icon" viewBox="0 0 1024 1024" version="1.1" xmlns="http://www.w3.org/2000/svg" p-id="5887" xmlns:xlink="http://www.w3.org/1999/xlink" width="200" height="200"><defs><style type="text/css"></style></defs><path d="M588.8 342.308571H434.468571a36.571429 36.571429 0 0 1-36.571428-36.571428 37.302857 37.302857 0 0 1 36.571428-36.571429h154.331429a36.571429 36.571429 0 0 1 36.571429 36.571429 36.571429 36.571429 0 0 1-36.571429 36.571428zM383.268571 856.502857a36.571429 36.571429 0 0 1-25.6-10.24L228.937143 717.531429A36.571429 36.571429 0 0 1 254.537143 658.285714h512a36.571429 36.571429 0 0 1 36.571428 36.571429 36.571429 36.571429 0 0 1-36.571428 36.571428H343.04l65.828571 65.828572a36.571429 36.571429 0 0 1-25.6 62.171428zM768.731429 599.771429h-512A37.302857 37.302857 0 0 1 219.428571 563.2a36.571429 36.571429 0 0 1 36.571429-36.571429h424.228571l-65.828571-66.56a36.571429 36.571429 0 0 1 0-51.2 36.571429 36.571429 0 0 1 51.931429 0l128.731428 128a37.302857 37.302857 0 0 1 7.314286 40.228572 35.84 35.84 0 0 1-33.645714 22.674286z" fill="currentColor" p-id="5888"></path><path d="M833.097143 1024H190.902857A190.902857 190.902857 0 0 1 0 833.097143V300.617143a110.445714 110.445714 0 0 1 61.44-98.742857L432.274286 21.942857a191.634286 191.634286 0 0 1 156.525714 0l373.028571 180.662857A109.714286 109.714286 0 0 1 1024 300.617143v532.48A190.902857 190.902857 0 0 1 833.097143 1024zM512 78.262857a110.445714 110.445714 0 0 0-48.274286 10.24l-365.714285 179.2a36.571429 36.571429 0 0 0-24.868572 32.914286v532.48A117.76 117.76 0 0 0 190.902857 950.857143h642.194286A117.76 117.76 0 0 0 950.857143 833.097143V300.617143a36.571429 36.571429 0 0 0-20.48-32.914286L558.08 87.771429A114.102857 114.102857 0 0 0 512 78.262857z" fill="currentColor" p-id="5889"></path></svg>