<?xml version="1.0" standalone="no"?><!DOCTYPE svg PUBLIC "-//W3C//DTD SVG 1.1//EN" "http://www.w3.org/Graphics/SVG/1.1/DTD/svg11.dtd"><svg t="1604657271878" class="icon" viewBox="0 0 1024 1024" version="1.1" xmlns="http://www.w3.org/2000/svg" p-id="5635" xmlns:xlink="http://www.w3.org/1999/xlink" width="200" height="200"><defs><style type="text/css"></style></defs><path d="M319.634286 1011.565714a307.931429 307.931429 0 0 1-219.428572-525.165714l84.114286-82.651429a36.571429 36.571429 0 0 1 51.931429 51.931429L153.6 537.6a234.788571 234.788571 0 0 0 332.068571 332.8l82.651429-82.651429a36.571429 36.571429 0 0 1 51.931429 51.931429L537.6 921.6a307.2 307.2 0 0 1-217.965714 89.965714zM813.348571 631.222857a35.84 35.84 0 0 1-25.6-10.971428 36.571429 36.571429 0 0 1 0-51.931429l81.92-81.92a235.52 235.52 0 0 0 0-332.8 235.52 235.52 0 0 0-332.068571 0L455.68 236.251429a37.302857 37.302857 0 0 1-51.931429 0 36.571429 36.571429 0 0 1 0-51.931429L485.668571 102.4a307.931429 307.931429 0 0 1 438.857143 435.2l-84.845714 82.651429a37.302857 37.302857 0 0 1-26.331429 10.971428z" fill="#006FE6" p-id="5636"></path><path d="M394.971429 664.868571A39.497143 39.497143 0 0 1 369.371429 658.285714a36.571429 36.571429 0 0 1 0-51.931428l233.325714-236.982857a36.571429 36.571429 0 0 1 51.2 0 36.571429 36.571429 0 0 1 0 51.931428L421.302857 658.285714a39.497143 39.497143 0 0 1-26.331428 6.582857z" fill="#006FE6" p-id="5637"></path></svg>