<?xml version="1.0" standalone="no"?><!DOCTYPE svg PUBLIC "-//W3C//DTD SVG 1.1//EN" "http://www.w3.org/Graphics/SVG/1.1/DTD/svg11.dtd"><svg t="1604657395960" class="icon" viewBox="0 0 1024 1024" version="1.1" xmlns="http://www.w3.org/2000/svg" p-id="6139" xmlns:xlink="http://www.w3.org/1999/xlink" width="200" height="200"><defs><style type="text/css"></style></defs><path d="M833.097143 1024H190.902857A190.902857 190.902857 0 0 1 0 833.097143V300.617143a110.445714 110.445714 0 0 1 61.44-98.742857L432.274286 21.942857a191.634286 191.634286 0 0 1 156.525714 0l373.028571 180.662857A109.714286 109.714286 0 0 1 1024 300.617143V402.285714a36.571429 36.571429 0 0 1-73.142857 0V300.617143a36.571429 36.571429 0 0 0-20.48-32.914286L558.08 87.771429a116.297143 116.297143 0 0 0-95.085714 0l-365.714286 179.2a36.571429 36.571429 0 0 0-24.137143 33.645714v532.48A117.76 117.76 0 0 0 190.902857 950.857143h642.194286A117.76 117.76 0 0 0 950.857143 833.097143v-73.142857a36.571429 36.571429 0 1 1 73.142857 0v73.142857A190.902857 190.902857 0 0 1 833.097143 1024z" fill="currentColor" p-id="6140"></path><path d="M438.857143 640.731429a37.302857 37.302857 0 0 1-33.645714-22.674286 35.84 35.84 0 0 1 8.045714-40.228572L541.257143 449.828571a36.571429 36.571429 0 0 1 51.931428 0 35.108571 35.108571 0 0 1 0 51.2l-65.828571 66.56h443.977143a36.571429 36.571429 0 1 1 0 73.142858z" fill="currentColor" p-id="6141"></path></svg>