<?xml version="1.0" standalone="no"?><!DOCTYPE svg PUBLIC "-//W3C//DTD SVG 1.1//EN" "http://www.w3.org/Graphics/SVG/1.1/DTD/svg11.dtd"><svg t="1604657361733" class="icon" viewBox="0 0 1024 1024" version="1.1" xmlns="http://www.w3.org/2000/svg" p-id="5761" xmlns:xlink="http://www.w3.org/1999/xlink" width="200" height="200"><defs><style type="text/css"></style></defs><path d="M115.565714 945.005714a35.84 35.84 0 0 1-25.6-10.971428 277.942857 277.942857 0 0 1 0-391.314286l146.285715-146.285714A276.48 276.48 0 0 1 699.977143 512a36.571429 36.571429 0 0 1-25.6 44.617143 35.108571 35.108571 0 0 1-44.617143-24.868572A196.754286 196.754286 0 0 0 577.828571 446.171429a202.605714 202.605714 0 0 0-285.257142 0l-146.285715 146.285714a204.068571 204.068571 0 0 0 0 287.451428 37.302857 37.302857 0 0 1 0 51.931429 37.302857 37.302857 0 0 1-30.72 13.165714z" fill="currentColor" p-id="5762"></path><path d="M285.257143 1015.222857a275.017143 275.017143 0 0 1-195.291429-81.188571 36.571429 36.571429 0 0 1 0-51.931429 37.302857 37.302857 0 0 1 51.931429 0 208.457143 208.457143 0 0 0 287.451428 0l113.371429-112.64a36.571429 36.571429 0 0 1 51.931429 0 36.571429 36.571429 0 0 1 0 51.2l-113.371429 113.371429a275.748571 275.748571 0 0 1-196.022857 81.188571zM589.531429 710.948571A276.48 276.48 0 0 1 324.022857 512a36.571429 36.571429 0 0 1 24.868572-44.617143 35.84 35.84 0 0 1 45.348571 24.868572A196.754286 196.754286 0 0 0 446.171429 577.828571a202.605714 202.605714 0 0 0 285.257142 0l146.285715-146.285714a199.68 199.68 0 0 0 59.245714-146.285714 198.948571 198.948571 0 0 0-59.245714-146.285714 208.457143 208.457143 0 0 0-287.451429 0L481.28 254.537143a36.571429 36.571429 0 0 1-51.931429 0 36.571429 36.571429 0 0 1 0-51.2l113.371429-113.371429a284.525714 284.525714 0 0 1 391.314286 0 274.285714 274.285714 0 0 1 80.457143 195.291429 275.017143 275.017143 0 0 1-80.457143 196.022857l-146.285715 146.285714a276.48 276.48 0 0 1-198.217142 83.382857z" fill="currentColor" p-id="5763"></path></svg>