<?xml version="1.0" standalone="no"?><!DOCTYPE svg PUBLIC "-//W3C//DTD SVG 1.1//EN" "http://www.w3.org/Graphics/SVG/1.1/DTD/svg11.dtd"><svg t="1605580718742" class="icon" viewBox="0 0 1024 1024" version="1.1" xmlns="http://www.w3.org/2000/svg" p-id="5008" xmlns:xlink="http://www.w3.org/1999/xlink" width="200" height="200"><defs><style type="text/css"></style></defs><path d="M588.8 345.6h-153.6a38.4 38.4 0 0 1 0-76.8h153.6a38.4 38.4 0 0 1 0 76.8z" fill="#B6BDCB" p-id="5009"></path><path d="M832 1024H192A192 192 0 0 1 0 832v-512a141.312 141.312 0 0 1 83.456-126.464l350.208-153.6a194.048 194.048 0 0 1 156.672 0l350.208 156.16A141.312 141.312 0 0 1 1024 322.048v512A192 192 0 0 1 832 1024zM512 97.792a115.712 115.712 0 0 0-47.104 9.728L114.688 263.68a64 64 0 0 0-37.888 58.368v512a115.2 115.2 0 0 0 115.2 113.152h640a115.2 115.2 0 0 0 115.2-115.2v-512a64 64 0 0 0-37.888-58.368L559.104 107.52a115.712 115.712 0 0 0-47.104-9.728z" fill="#B6BDCB" p-id="5010"></path><path d="M384 857.6a40.448 40.448 0 0 1-25.6-11.264L228.864 716.8a38.912 38.912 0 0 1-8.192-41.984 37.888 37.888 0 0 1 35.328-22.016h512a38.4 38.4 0 0 1 0 76.8H348.672L409.6 792.064a38.4 38.4 0 0 1 0 54.272 40.448 40.448 0 0 1-25.6 11.264zM768 601.6H256a38.4 38.4 0 0 1 0-76.8h419.328L614.4 460.8a38.4 38.4 0 0 1 0-51.2 37.888 37.888 0 0 1 51.2 0l128 128a37.888 37.888 0 0 1 8.192 41.472 38.4 38.4 0 0 1-33.792 22.528z" fill="#B6BDCB" p-id="5011"></path></svg>