<?xml version="1.0" standalone="no"?><!DOCTYPE svg PUBLIC "-//W3C//DTD SVG 1.1//EN" "http://www.w3.org/Graphics/SVG/1.1/DTD/svg11.dtd"><svg t="1608608301658" class="icon" viewBox="0 0 1024 1024" version="1.1" xmlns="http://www.w3.org/2000/svg" p-id="4560" xmlns:xlink="http://www.w3.org/1999/xlink" width="200" height="200"><defs><style type="text/css"></style></defs><path d="M976.897676 744.958138V272.383319a55.295862 55.295862 0 0 0-28.159929-48.12788L531.970789 42.495894a51.199872 51.199872 0 0 0-40.959898 0L74.755932 224.255439a55.295862 55.295862 0 0 0-28.15993 48.12788v472.574819a56.319859 56.319859 0 0 0 28.15993 48.639878l415.74296 186.879533a51.199872 51.199872 0 0 0 41.983895 0l416.25496-186.879533a56.319859 56.319859 0 0 0 28.159929-48.639878z" fill="#FFFFFF" p-id="4561"></path><path d="M511.49084 1023.99744a81.919795 81.919795 0 0 1-36.351909-8.19198L59.39597 828.413929a95.231762 95.231762 0 0 1-51.199872-83.455791V272.383319a93.695766 93.695766 0 0 1 47.103882-81.407796L475.650929 7.679981a89.599776 89.599776 0 0 1 71.679821 0l416.766958 181.759545a96.255759 96.255759 0 0 1 51.199872 83.455792v472.574818a95.743761 95.743761 0 0 1-47.103882 81.919796l-419.83895 188.415528a83.96779 83.96779 0 0 1-36.863908 8.19198z m0-946.685633h-5.119987L90.115893 259.071352a21.503946 21.503946 0 0 0-5.119987 13.311967v472.574819a18.431954 18.431954 0 0 0 8.703978 15.359961l412.670969 185.343537a11.775971 11.775971 0 0 0 10.239974 0l416.254959-187.391532a17.919955 17.919955 0 0 0 5.631986-13.311966V272.383319A17.407956 17.407956 0 0 0 929.793794 255.99936L516.610827 77.823805z" fill="#FFFFFF" p-id="4562"></path><path d="M512.002839 485.886785a91.135772 91.135772 0 0 1-36.35191-7.679981L59.39597 292.351269a38.399904 38.399904 0 1 1 31.231922-70.143825L506.882851 409.598976a11.775971 11.775971 0 0 0 10.239975 0l422.910942-188.927528a38.399904 38.399904 0 0 1 30.719924 70.655824l-422.398944 186.879532a87.551781 87.551781 0 0 1-36.351909 7.679981z" fill="#006FE6" p-id="4563"></path><path d="M511.49084 1007.613481a38.911903 38.911903 0 0 1-38.399904-38.399904V473.598816a38.399904 38.399904 0 0 1 76.799808 0v495.614761a38.399904 38.399904 0 0 1-38.399904 38.399904zM288.259398 610.814473a37.887905 37.887905 0 0 1-38.399904-38.399904V323.583191L458.242973 230.399424a38.399904 38.399904 0 0 1 31.231922 70.143825L326.659302 373.247067v199.167502a38.399904 38.399904 0 0 1-38.399904 38.399904z" fill="#006FE6" p-id="4564"></path></svg>