<?xml version="1.0" standalone="no"?><!DOCTYPE svg PUBLIC "-//W3C//DTD SVG 1.1//EN" "http://www.w3.org/Graphics/SVG/1.1/DTD/svg11.dtd"><svg t="1608608415620" class="icon" viewBox="0 0 1024 1024" version="1.1" xmlns="http://www.w3.org/2000/svg" p-id="6733" xmlns:xlink="http://www.w3.org/1999/xlink" width="200" height="200"><defs><style type="text/css"></style></defs><path d="M910.848 915.456a39.936 39.936 0 0 1-20.992-6.144 39.424 39.424 0 0 1-11.264-51.2 435.2 435.2 0 1 0-736.768-5.632 38.4 38.4 0 1 1-65.024 40.448 512 512 0 1 1 866.304 6.656 38.4 38.4 0 0 1-32.256 15.872z" fill="#BFCBD9" p-id="6734"></path><path d="M902.656 921.6H121.856a38.4 38.4 0 1 1 0-76.8h780.8a38.4 38.4 0 0 1 0 76.8z" fill="#BFCBD9" p-id="6735"></path><path d="M486.4 160.256m22.528 0l6.144 0q22.528 0 22.528 22.528l0 51.2q0 22.528-22.528 22.528l-6.144 0q-22.528 0-22.528-22.528l0-51.2q0-22.528 22.528-22.528Z" fill="#BFCBD9" p-id="6736"></path><path d="M73.258332 479.466344m9.520744-20.417302l2.596567-5.568355q9.520744-20.417302 29.938046-10.896558l46.402958 21.638055q20.417302 9.520744 10.896558 29.938046l-2.596567 5.568355q-9.520744 20.417302-29.938046 10.896558l-46.402958-21.638055q-20.417302-9.520744-10.896558-29.938046Z" fill="#BFCBD9" p-id="6737"></path><path d="M928.234317 433.608706m9.520745 20.417302l2.596566 5.568355q9.520744 20.417302-10.896558 29.938046l-46.402958 21.638055q-20.417302 9.520744-29.938046-10.896557l-2.596567-5.568356q-9.520744-20.417302 10.896558-29.938046l46.402958-21.638055q20.417302-9.520744 29.938047 10.896558Z" fill="#BFCBD9" p-id="6738"></path><path d="M232.732539 259.926641m18.453857-12.92153l5.03287-3.524054q18.453857-12.92153 31.375387 5.532327l29.367114 41.940585q12.92153 18.453857-5.532327 31.375387l-5.032871 3.524054q-18.453857 12.92153-31.375387-5.532327l-29.367113-41.940585q-12.92153-18.453857 5.532327-31.375387Z" fill="#BFCBD9" p-id="6739"></path><path d="M755.529611 230.578046m18.453857 12.92153l5.03287 3.524053q18.453857 12.92153 5.532328 31.375388l-29.367114 41.940584q-12.92153 18.453857-31.375387 5.532328l-5.03287-3.524054q-18.453857-12.92153-5.532328-31.375387l29.367114-41.940585q12.92153-18.453857 31.375387-5.532327Z" fill="#BFCBD9" p-id="6740"></path><path d="M688.128 396.8s-117.76 256-134.144 281.088a51.2 51.2 0 0 1-83.968-58.88c16.384-23.04 218.112-222.208 218.112-222.208z" fill="#BFCBD9" p-id="6741"></path></svg>