<?xml version="1.0" standalone="no"?><!DOCTYPE svg PUBLIC "-//W3C//DTD SVG 1.1//EN" "http://www.w3.org/Graphics/SVG/1.1/DTD/svg11.dtd"><svg t="1608608359821" class="icon" viewBox="0 0 1024 1024" version="1.1" xmlns="http://www.w3.org/2000/svg" p-id="5580" xmlns:xlink="http://www.w3.org/1999/xlink" width="200" height="200"><defs><style type="text/css"></style></defs><path d="M0 128.512m102.4 0l819.2 0q102.4 0 102.4 102.4l0 563.2q0 102.4-102.4 102.4l-819.2 0q-102.4 0-102.4-102.4l0-563.2q0-102.4 102.4-102.4Z" fill="#FFFFFF" p-id="5581"></path><path d="M921.6 204.8a25.088 25.088 0 0 1 25.6 25.088v563.2a25.6 25.6 0 0 1-25.6 25.6H102.4a25.6 25.6 0 0 1-25.6-25.6V230.4A25.088 25.088 0 0 1 102.4 204.8h819.2m0-76.8H102.4a102.4 102.4 0 0 0-102.4 102.4v563.2a102.4 102.4 0 0 0 102.4 102.4h819.2a102.4 102.4 0 0 0 102.4-102.4v-563.2a102.4 102.4 0 0 0-102.4-102.4z" fill="#FFFFFF" p-id="5582"></path><path d="M0.512 320H1024v76.8H0.512zM563.2 576H153.6a38.4 38.4 0 0 1 0-76.8h409.6a38.4 38.4 0 0 1 0 76.8zM358.4 716.8H153.6a38.4 38.4 0 1 1 0-76.8h204.8A38.4 38.4 0 0 1 358.4 716.8zM870.4 576h-153.6a38.4 38.4 0 1 1 0-76.8h153.6a38.4 38.4 0 0 1 0 76.8z" fill="#006FE6" p-id="5583"></path></svg>