<?xml version="1.0" standalone="no"?><!DOCTYPE svg PUBLIC "-//W3C//DTD SVG 1.1//EN" "http://www.w3.org/Graphics/SVG/1.1/DTD/svg11.dtd"><svg t="1608608407057" class="icon" viewBox="0 0 1024 1024" version="1.1" xmlns="http://www.w3.org/2000/svg" p-id="6474" xmlns:xlink="http://www.w3.org/1999/xlink" width="200" height="200"><defs><style type="text/css"></style></defs><path d="M512 1023.99744a83.96779 83.96779 0 0 1-36.863908-8.19198l-418.302954-187.391531a95.743761 95.743761 0 0 1-51.199872-83.455791V272.383319a93.695766 93.695766 0 0 1 47.103882-81.407796L474.112095 7.679981a89.599776 89.599776 0 0 1 71.679821 0l416.766958 181.247547a95.743761 95.743761 0 0 1 51.199872 83.455791v472.574819a94.719763 94.719763 0 0 1-47.103883 81.919795l-419.83895 188.415529A81.919795 81.919795 0 0 1 512 1023.99744z m0-947.197632h-5.119987L88.06506 259.071352a22.015945 22.015945 0 0 0-4.607989 13.311967v472.574819a17.407956 17.407956 0 0 0 8.703979 15.359961l412.670968 185.343537a11.775971 11.775971 0 0 0 10.239974 0l416.25496-187.391532a17.919955 17.919955 0 0 0 5.119987-13.311966V272.383319a16.383959 16.383959 0 0 0-8.703978-16.383959l-412.670969-178.175555z" fill="#BBC5D3" p-id="6475"></path><path d="M512 485.886785a89.087777 89.087777 0 0 1-36.351909-7.679981L55.297142 292.351269a38.399904 38.399904 0 0 1 31.231922-70.143825L505.344017 409.598976a11.775971 11.775971 0 0 0 10.239974 0l432.638918-194.559514a38.399904 38.399904 0 1 1 31.231922 70.143825l-432.638918 193.023517a89.087777 89.087777 0 0 1-34.815913 7.679981z" fill="#BBC5D3" p-id="6476"></path><path d="M512 1007.613481a38.399904 38.399904 0 0 1-38.399904-38.399904V473.598816a38.399904 38.399904 0 0 1 76.799808 0v495.614761a38.911903 38.911903 0 0 1-38.399904 38.399904zM286.208564 610.814473a38.399904 38.399904 0 0 1-38.399904-38.399904V323.583191L456.19214 230.399424a38.399904 38.399904 0 0 1 31.231921 70.143825L324.608468 373.247067v199.167502a37.887905 37.887905 0 0 1-38.399904 38.399904z" fill="#BBC5D3" p-id="6477"></path></svg>