<?xml version="1.0" standalone="no"?><!DOCTYPE svg PUBLIC "-//W3C//DTD SVG 1.1//EN" "http://www.w3.org/Graphics/SVG/1.1/DTD/svg11.dtd"><svg t="1608608352159" class="icon" viewBox="0 0 1024 1024" version="1.1" xmlns="http://www.w3.org/2000/svg" p-id="5321" xmlns:xlink="http://www.w3.org/1999/xlink" width="200" height="200"><defs><style type="text/css"></style></defs><path d="M109.056 819.2a473.6 473.6 0 1 1 801.792 6.656M932.352 839.168l-43.008-28.16a448 448 0 1 0-825.344-241.152 444.416 444.416 0 0 0 67.072 235.52l-43.52 27.136a499.2 499.2 0 1 1 921.6-262.656 496.64 496.64 0 0 1-76.8 269.312z" fill="#FFFFFF" p-id="5322"></path><path d="M902.656 870.4H121.856a38.4 38.4 0 1 1 0-76.8h780.8a38.4 38.4 0 1 1 0 76.8z" fill="#FFFFFF" p-id="5323"></path><path d="M486.4 108.544m22.528 0l6.144 0q22.528 0 22.528 22.528l0 51.2q0 22.528-22.528 22.528l-6.144 0q-22.528 0-22.528-22.528l0-51.2q0-22.528 22.528-22.528Z" fill="#006FE6" p-id="5324"></path><path d="M73.962977 428.143615m9.520744-20.417302l2.596567-5.568355q9.520744-20.417302 29.938046-10.896557l46.402958 21.638055q20.417302 9.520744 10.896558 29.938046l-2.596567 5.568355q-9.520744 20.417302-29.938046 10.896557l-46.402958-21.638055q-20.417302-9.520744-10.896558-29.938046Z" fill="#006FE6" p-id="5325"></path><path d="M928.517216 381.555045m9.520744 20.417301l2.596567 5.568355q9.520744 20.417302-10.896558 29.938046l-45.938929 21.421675q-20.417302 9.520744-29.938046-10.896558l-2.596567-5.568355q-9.520744-20.417302 10.896558-29.938046l45.938929-21.421674q20.417302-9.520744 29.938046 10.896557Z" fill="#006FE6" p-id="5326"></path><path d="M233.063247 208.751515m18.453858-12.92153l5.03287-3.524054q18.453857-12.92153 31.375387 5.532328l29.367114 41.940584q12.92153 18.453857-5.532328 31.375387l-5.03287 3.524054q-18.453857 12.92153-31.375387-5.532327l-29.367114-41.940585q-12.92153-18.453857 5.532328-31.375387Z" fill="#006FE6" p-id="5327"></path><path d="M755.610364 179.209788m18.453857 12.921529l5.03287 3.524054q18.453857 12.92153 5.532327 31.375387l-29.073442 41.521179q-12.92153 18.453857-31.375387 5.532327l-5.03287-3.524053q-18.453857-12.92153-5.532328-31.375387l29.073443-41.521179q12.92153-18.453857 31.375387-5.532328Z" fill="#006FE6" p-id="5328"></path><path d="M688.128 345.088s-117.76 256-134.144 281.088a51.2 51.2 0 0 1-83.968-58.88c16.384-23.04 218.112-222.208 218.112-222.208z" fill="#006FE6" p-id="5329"></path></svg>