<?xml version="1.0" standalone="no"?><!DOCTYPE svg PUBLIC "-//W3C//DTD SVG 1.1//EN" "http://www.w3.org/Graphics/SVG/1.1/DTD/svg11.dtd"><svg t="1604038416907" class="icon" viewBox="0 0 1024 1024" version="1.1" xmlns="http://www.w3.org/2000/svg" p-id="12892" xmlns:xlink="http://www.w3.org/1999/xlink" width="200" height="200"><defs><style type="text/css"></style></defs><path d="M999.77 958.618h-28.714c-0.023 0 0.153-0.26 0.033-1.515l-49.75-518.36c-2.49-25.848-25.163-47.79-50.552-47.79h-96.69c-26.078 0-48.138 22.158-50.215 47.83l-8.073 97.976c-0.501 0.153-1.221-0.697-2.142-0.697h-386.76c-26.396 0-62.27 30.845-62.27 58.192v50.93H145.616c-25.122 0-48.091 24.108-50.162 50.499l-20.39 261.37c-0.075 0.969 0.09 1.565 0.072 1.565H32.874c-13.349 0-24.173 11.03-24.173 24.379s10.823 24.378 24.173 24.378H999.77c13.35 0 24.173-11.03 24.173-24.378s-10.825-24.379-24.174-24.379z m-876.445 0l20.325-261.772c0.118-1.464 1.847-4.067 1.965-4.067h132.948c26.545 0 44.38-15.825 44.38-42.64l-0.06-58.018c0.437-1.936 3.334 4.308 5.335-7.301h385.45c27.064 0 48.179-16.457 50.215-41.586l8.185-99.406c0.024-0.331 0.974-0.91 2.03-0.91l96.454 0.2c0.932 0.235 2.555-0.11 2.667 1.06l49.65 514.44H123.325zM386.053 290.38c5.393 0 10.9-0.307 16.363-0.915 40.933-4.55 66.546-20.313 82.813-35.568 12.467 7.563 28.736 13.81 49.338 13.81 3.116 0 6.3-0.151 9.461-0.443 19.449-1.812 34.861-8.038 46.881-15.302 13.564 17.147 33.388 35.214 62.983 42.753 10.871 2.768 21.753 4.173 32.346 4.173 21.54 0 39.434-5.757 53.576-12.78 12.365 16.606 32.578 33.485 66.867 39.372l0.86 0.147 0.865 0.115a154.78 154.78 0 0 0 20.638 1.393c55.572 0 98.74-30.537 112.659-79.694 17.55-61.991-3.215-114.228-56.976-143.317-15.867-8.587-33.795-12.941-53.281-12.941-6.204 0-11.98 0.419-17.249 0.985-20.494-45.15-55.103-71.248-103.161-77.701a130.79 130.79 0 0 0-17.36-1.177c-44.877 0-74.925 23.597-93.965 42.484-13.714-10.991-33.685-22.03-61.422-22.03-25.5 0-44.633 8.917-58.461 18.678-18.288-19.813-47.453-41.596-93.984-41.596-7.332 0-14.95 0.572-22.645 1.703-79.694 11.691-125.822 75.262-114.783 158.186 7.832 58.82 61.456 119.665 137.637 119.665zM370.22 60.378c5.536-0.812 10.744-1.21 15.625-1.21 60.733 0 72.907 58.124 88.31 58.124 16.644 0 26.469-35.206 64.135-35.206 36.066 0 45.037 35.42 62.283 35.42 0.766 0 1.545-0.07 2.346-0.215 18.052-3.285 38.96-55.66 90.757-55.66 3.5 0 7.134 0.235 10.925 0.746 64.963 8.725 70.097 68.197 75.26 75.497 2.868 4.054 7.484 5.332 13.35 5.332 9.962 0 23.526-3.682 38.236-3.682 9.824 0 20.157 1.64 30.275 7.117 40.929 22.145 41.903 57.825 33.466 87.624-9.465 33.427-38.634 44.52-66.143 44.52-4.818 0-9.58-0.338-14.184-0.958-51.339-8.813-42.67-55.5-59.964-57.613a5.231 5.231 0 0 0-0.607-0.036c-10.383-0.003-29.515 30.36-68.052 30.36-6.274 0-13.062-0.213-20.412-2.084-42.477-10.82-53.24-62.976-66.06-62.976h-0.16c-12.891 0-22.39 30.73-60.055 34.236-1.715 0.159-3.376-0.062-4.984-0.062-31.992 0-43.228-30.213-55.015-30.213-0.628 0-1.258 0.009-1.892 0.189-13.14 3.72-16.292 44.671-80.587 51.819-3.762 0.419-7.441 0.603-11.02 0.603-52.59 0-85.14-43.352-89.713-77.71-6.21-46.647 10.928-94.726 73.88-103.962z" fill="#47d7a2" p-id="12893"></path></svg>