<?xml version="1.0" standalone="no"?><!DOCTYPE svg PUBLIC "-//W3C//DTD SVG 1.1//EN" "http://www.w3.org/Graphics/SVG/1.1/DTD/svg11.dtd"><svg t="1608608375964" class="icon" viewBox="0 0 1024 1024" version="1.1" xmlns="http://www.w3.org/2000/svg" p-id="5836" xmlns:xlink="http://www.w3.org/1999/xlink" width="200" height="200"><defs><style type="text/css"></style></defs><path d="M0 89.6m102.4 0l819.2 0q102.4 0 102.4 102.4l0 512q0 102.4-102.4 102.4l-819.2 0q-102.4 0-102.4-102.4l0-512q0-102.4 102.4-102.4Z" fill="#FFFFFF" p-id="5837"></path><path d="M921.6 166.4a25.6 25.6 0 0 1 25.6 25.6v512a25.6 25.6 0 0 1-25.6 25.6H102.4a25.6 25.6 0 0 1-25.6-25.6v-512a25.6 25.6 0 0 1 25.6-25.6h819.2m0-76.8H102.4a102.4 102.4 0 0 0-102.4 102.4v512a102.4 102.4 0 0 0 102.4 102.4h819.2a102.4 102.4 0 0 0 102.4-102.4v-512a102.4 102.4 0 0 0-102.4-102.4zM985.6 934.4H38.912a38.4 38.4 0 0 1 0-76.8h946.688a38.4 38.4 0 0 1 0 76.8z" fill="#FFFFFF" p-id="5838"></path><path d="M140.8 281.6h51.2v333.312h-51.2zM313.856 281.6h25.6v333.312h-25.6zM262.656 281.6h25.6v333.312h-25.6zM390.656 281.6h25.6v333.312h-25.6zM761.856 281.6h25.6v333.312h-25.6zM460.8 281.6h25.6v333.312H460.8zM505.856 281.6h25.6v333.312h-25.6zM563.2 281.6h51.2v333.312h-51.2zM678.4 281.6h51.2v333.312h-51.2zM832 281.6h51.2v333.312h-51.2z" fill="#006FE6" p-id="5839"></path></svg>