<?xml version="1.0" standalone="no"?><!DOCTYPE svg PUBLIC "-//W3C//DTD SVG 1.1//EN" "http://www.w3.org/Graphics/SVG/1.1/DTD/svg11.dtd"><svg t="1608608387172" class="icon" viewBox="0 0 1024 1024" version="1.1" xmlns="http://www.w3.org/2000/svg" p-id="6090" xmlns:xlink="http://www.w3.org/1999/xlink" width="200" height="200"><defs><style type="text/css"></style></defs><path d="M921.6 166.4a25.6 25.6 0 0 1 25.6 25.6v512a25.088 25.088 0 0 1-25.6 25.088H102.4a25.088 25.088 0 0 1-25.6-25.088v-512a25.6 25.6 0 0 1 25.6-25.6h819.2m0-76.8H102.4a102.4 102.4 0 0 0-102.4 102.4v512a102.4 102.4 0 0 0 102.4 102.4h819.2a102.4 102.4 0 0 0 102.4-102.4v-512a102.4 102.4 0 0 0-102.4-102.4zM985.6 934.4H38.912a38.4 38.4 0 0 1 0-76.8h946.688a38.4 38.4 0 0 1 0 76.8z" fill="#BBC5D3" p-id="6091"></path><path d="M140.8 281.6h51.2v333.312h-51.2zM313.856 281.6h25.6v333.312h-25.6zM262.656 281.6h25.6v333.312h-25.6zM390.656 281.6h25.6v333.312h-25.6zM761.856 281.6h25.6v333.312h-25.6zM460.8 281.6h25.6v333.312H460.8zM505.856 281.6h25.6v333.312h-25.6zM563.2 281.6h51.2v333.312h-51.2zM678.4 281.6h51.2v333.312h-51.2zM832 281.6h51.2v333.312h-51.2z" fill="#BBC5D3" p-id="6092"></path></svg>