<?xml version="1.0" standalone="no"?><!DOCTYPE svg PUBLIC "-//W3C//DTD SVG 1.1//EN" "http://www.w3.org/Graphics/SVG/1.1/DTD/svg11.dtd"><svg t="1608608355316" class="icon" viewBox="0 0 1024 1024" version="1.1" xmlns="http://www.w3.org/2000/svg" p-id="5453" xmlns:xlink="http://www.w3.org/1999/xlink" width="200" height="200"><defs><style type="text/css"></style></defs><path d="M716.78802 63.996256h102.39401a149.495255 149.495255 0 0 1 153.591015 143.863584v672.216676A149.495255 149.495255 0 0 1 819.18203 1023.9401H204.81797a149.495255 149.495255 0 0 1-153.591015-143.863584V207.85984a149.495255 149.495255 0 0 1 153.591015-143.863584h102.39401" fill="#FFFFFF" p-id="5454"></path><path d="M563.197005 422.375291H269.326196a38.397754 38.397754 0 0 1 0-76.795507H563.197005a38.397754 38.397754 0 0 1 0 76.795507zM755.697744 608.220419h-486.371548a38.397754 38.397754 0 0 1 0-76.795507h486.371548a38.397754 38.397754 0 0 1 0 76.795507zM755.697744 793.553577h-486.371548a38.397754 38.397754 0 1 1 0-76.795507h486.371548a38.397754 38.397754 0 0 1 0 76.795507z" fill="#006FE6" p-id="5455"></path><path d="M294.924699 0m51.197005 0l339.436143 0q51.197005 0 51.197005 51.197005l0 102.39401q0 51.197005-51.197005 51.197005l-339.436143 0q-51.197005 0-51.197005-51.197005l0-102.39401q0-51.197005 51.197005-51.197005Z" fill="#006FE6" p-id="5456"></path></svg>