<?xml version="1.0" standalone="no"?><!DOCTYPE svg PUBLIC "-//W3C//DTD SVG 1.1//EN" "http://www.w3.org/Graphics/SVG/1.1/DTD/svg11.dtd"><svg t="1608608325448" class="icon" viewBox="0 0 1024 1024" version="1.1" xmlns="http://www.w3.org/2000/svg" p-id="5195" xmlns:xlink="http://www.w3.org/1999/xlink" width="200" height="200"><defs><style type="text/css"></style></defs><path d="M54.68455 6.613015m101.738699 0l712.170889 0q101.738698 0 101.738699 101.738699l0 813.909588q0 101.738698-101.738699 101.738698l-712.170889 0q-101.738698 0-101.738699-101.738698l0-813.909588q0-101.738698 101.738699-101.738699Z" fill="#FFFFFF" p-id="5196"></path><path d="M754.138102 337.263785h-152.608047a38.152012 38.152012 0 0 1 0-76.304023h152.608047a38.152012 38.152012 0 0 1 0 76.304023zM754.138102 498.010929h-483.258817a38.152012 38.152012 0 0 1 0-76.304024h483.258817a38.152012 38.152012 0 0 1 0 76.304024zM754.138102 661.30154h-483.258817a38.152012 38.152012 0 1 1 0-76.304024h483.258817a38.152012 38.152012 0 0 1 0 76.304024zM754.138102 820.522603h-483.258817a38.152012 38.152012 0 1 1 0-76.304024h483.258817a38.152012 38.152012 0 0 1 0 76.304024zM327.344262 364.733234A37.134625 37.134625 0 0 1 300.383507 356.085445L243.91853 297.077a38.152012 38.152012 0 0 1 53.92151-53.921511l29.504222 29.504223 89.530055-90.038748a38.152012 38.152012 0 0 1 53.92151 0 39.169399 39.169399 0 0 1 0 54.430203L354.305017 356.085445a37.643318 37.643318 0 0 1-26.960755 8.647789z" fill="#006FE6" p-id="5197"></path></svg>