<?xml version="1.0" standalone="no"?><!DOCTYPE svg PUBLIC "-//W3C//DTD SVG 1.1//EN" "http://www.w3.org/Graphics/SVG/1.1/DTD/svg11.dtd"><svg t="1600409040851" class="icon" viewBox="0 0 1024 1024" version="1.1" xmlns="http://www.w3.org/2000/svg" p-id="1783" xmlns:xlink="http://www.w3.org/1999/xlink" width="200" height="200"><defs><style type="text/css"></style></defs><path d="M932.550101 318.207222H687.533955a36.569574 36.569574 0 0 1-36.569574-36.569574 36.569574 36.569574 0 0 1 36.569574-36.569574h208.446572V36.621503a36.569574 36.569574 0 0 1 73.139148 0v245.016145a36.569574 36.569574 0 0 1-36.569574 36.569574z"  p-id="1784"></path><path d="M512 1024a511.974036 511.974036 0 1 1 424.93845-797.948104 36.569574 36.569574 0 0 1-9.50809 51.197403 37.300965 37.300965 0 0 1-51.197403-10.23948 438.834888 438.834888 0 1 0-24.867311 523.676299 36.569574 36.569574 0 0 1 56.317144 46.077663A511.974036 511.974036 0 0 1 512 1024z"  p-id="1785"></path></svg>