<?xml version="1.0" standalone="no"?><!DOCTYPE svg PUBLIC "-//W3C//DTD SVG 1.1//EN" "http://www.w3.org/Graphics/SVG/1.1/DTD/svg11.dtd"><svg t="1604978314219" class="icon" viewBox="0 0 1024 1024" version="1.1" xmlns="http://www.w3.org/2000/svg" p-id="5525" xmlns:xlink="http://www.w3.org/1999/xlink" width="200" height="200"><defs><style type="text/css"></style></defs><path d="M658.285714 109.714286H365.714286a36.571429 36.571429 0 0 1-36.571429-36.571429 36.571429 36.571429 0 0 1 36.571429-36.571428h292.571428a36.571429 36.571429 0 0 1 36.571429 36.571428 36.571429 36.571429 0 0 1-36.571429 36.571429zM987.428571 237.714286H36.571429a36.571429 36.571429 0 0 1-36.571429-36.571429 36.571429 36.571429 0 0 1 36.571429-36.571428h950.857142a36.571429 36.571429 0 0 1 36.571429 36.571428 36.571429 36.571429 0 0 1-36.571429 36.571429z" p-id="5526"></path><path d="M804.571429 237.714286V877.714286a73.142857 73.142857 0 0 1-73.142858 73.142857H292.571429a73.142857 73.142857 0 0 1-73.142858-73.142857V237.714286h585.142858m73.142857-73.142857H146.285714V877.714286a146.285714 146.285714 0 0 0 146.285715 146.285714h438.857142a146.285714 146.285714 0 0 0 146.285715-146.285714V163.108571z" p-id="5527"></path><path d="M512 420.571429A164.571429 164.571429 0 1 1 347.428571 585.142857 164.571429 164.571429 0 0 1 512 420.571429m0-73.142858A237.714286 237.714286 0 1 0 749.714286 585.142857 238.445714 238.445714 0 0 0 512 347.428571z" p-id="5528"></path><path d="M356.571429 688.347429l258.633142-258.56 51.712 51.712-258.633142 258.56z" p-id="5529"></path></svg>