<?xml version="1.0" standalone="no"?><!DOCTYPE svg PUBLIC "-//W3C//DTD SVG 1.1//EN" "http://www.w3.org/Graphics/SVG/1.1/DTD/svg11.dtd"><svg t="1608630215025" class="icon" viewBox="0 0 1024 1024" version="1.1" xmlns="http://www.w3.org/2000/svg" p-id="5930" xmlns:xlink="http://www.w3.org/1999/xlink" width="200" height="200"><defs><style type="text/css"></style></defs><path d="M512 1024a91.648 91.648 0 0 1-36.864-7.68l-418.304-187.904a95.744 95.744 0 0 1-51.2-83.456V272.384a94.208 94.208 0 0 1 47.104-81.408L474.112 7.68a87.552 87.552 0 0 1 71.68 0l416.768 181.248a96.256 96.256 0 0 1 51.2 83.456v472.576a94.72 94.72 0 0 1-47.104 81.92l-419.328 188.416A86.016 86.016 0 0 1 512 1024z m0-947.2h-5.12L88.064 259.072a22.016 22.016 0 0 0-4.608 13.312v472.576a17.408 17.408 0 0 0 8.704 15.36l412.672 185.344a11.776 11.776 0 0 0 10.24 0l416.256-187.392a18.944 18.944 0 0 0 5.12-13.312V272.384a16.384 16.384 0 0 0-8.704-16.384l-412.672-178.176z" fill="#BBC5D3" p-id="5931"></path><path d="M512 485.888a89.088 89.088 0 0 1-36.352-7.68L55.296 292.352a38.4 38.4 0 0 1 31.232-70.144L505.344 409.6a11.776 11.776 0 0 0 10.24 0l432.64-194.56a38.4 38.4 0 1 1 31.232 70.144l-432.64 193.024a91.136 91.136 0 0 1-34.816 7.68z" fill="#BBC5D3" p-id="5932"></path><path d="M512 1007.616a38.4 38.4 0 0 1-38.4-38.4V473.6a38.4 38.4 0 0 1 76.8 0v495.616a38.912 38.912 0 0 1-38.4 38.4zM275.456 614.4a38.4 38.4 0 0 1-38.4-38.4V327.68l207.872-93.696a38.4 38.4 0 0 1 31.744 70.144L313.856 377.344v199.168a38.912 38.912 0 0 1-38.4 37.888z" fill="#BBC5D3" p-id="5933"></path></svg>