<?xml version="1.0" standalone="no"?><!DOCTYPE svg PUBLIC "-//W3C//DTD SVG 1.1//EN" "http://www.w3.org/Graphics/SVG/1.1/DTD/svg11.dtd"><svg t="1608608363576" class="icon" viewBox="0 0 1024 1024" version="1.1" xmlns="http://www.w3.org/2000/svg" p-id="5707" xmlns:xlink="http://www.w3.org/1999/xlink" width="200" height="200"><defs><style type="text/css"></style></defs><path d="M665.6 83.456H358.4a38.4 38.4 0 0 1 0-76.8h307.2a38.4 38.4 0 1 1 0 76.8zM985.6 230.4H38.4a38.4 38.4 0 0 1 0-76.8h947.2a38.4 38.4 0 0 1 0 76.8z" fill="#FFFFFF" p-id="5708"></path><path d="M186.368 192h665.6v691.2a102.4 102.4 0 0 1-102.4 102.4h-460.8a102.4 102.4 0 0 1-102.4-102.4V192z" fill="#FFFFFF" p-id="5709"></path><path d="M749.056 1024h-460.8a140.8 140.8 0 0 1-140.8-140.8V153.6h742.4v729.6A140.8 140.8 0 0 1 749.056 1024zM224.768 230.4v652.8a64 64 0 0 0 64 64h460.8a64.512 64.512 0 0 0 64-64V230.4z" fill="#FFFFFF" p-id="5710"></path><path d="M512 832a243.2 243.2 0 1 1 243.2-243.2A243.2 243.2 0 0 1 512 832z m0-409.6a166.4 166.4 0 1 0 166.4 166.4A166.912 166.912 0 0 0 512 422.4z" fill="#006FE6" p-id="5711"></path><path d="M340.48 700.1088l289.5872-289.6384 54.272 54.272-289.5872 289.6896z" fill="#006FE6" p-id="5712"></path></svg>