<?xml version="1.0" standalone="no"?><!DOCTYPE svg PUBLIC "-//W3C//DTD SVG 1.1//EN" "http://www.w3.org/Graphics/SVG/1.1/DTD/svg11.dtd"><svg t="1600409037283" class="icon" viewBox="0 0 1024 1024" version="1.1" xmlns="http://www.w3.org/2000/svg" p-id="1657" xmlns:xlink="http://www.w3.org/1999/xlink" width="200" height="200"><defs><style type="text/css"></style></defs><path d="M475.428571 106.788571a365.714286 365.714286 0 1 1-365.714285 365.714286 365.714286 365.714286 0 0 1 365.714285-365.714286m0-73.142857a438.857143 438.857143 0 1 0 438.857143 438.857143 438.857143 438.857143 0 0 0-438.857143-438.857143z"  p-id="1658"></path><path d="M954.514286 996.937143a37.302857 37.302857 0 0 1-26.331429-10.971429l-190.171428-190.171428a37.302857 37.302857 0 0 1 0-51.931429 36.571429 36.571429 0 0 1 51.931428 0l190.171429 190.171429a36.571429 36.571429 0 0 1 0 51.931428 36.571429 36.571429 0 0 1-25.6 10.971429z"  p-id="1659"></path></svg>