<?xml version="1.0" standalone="no"?><!DOCTYPE svg PUBLIC "-//W3C//DTD SVG 1.1//EN" "http://www.w3.org/Graphics/SVG/1.1/DTD/svg11.dtd"><svg t="1605580631152" class="icon" viewBox="0 0 1024 1024" version="1.1" xmlns="http://www.w3.org/2000/svg" p-id="3363" xmlns:xlink="http://www.w3.org/1999/xlink" width="200" height="200"><defs><style type="text/css"></style></defs><path d="M54.175857 6.613015m101.738698 0l712.17089 0q101.738698 0 101.738698 101.738699l0 813.909588q0 101.738698-101.738698 101.738698l-712.17089 0q-101.738698 0-101.738698-101.738698l0-813.909588q0-101.738698 101.738698-101.738699Z" fill="#FFFFFF" p-id="3364"></path><path d="M753.629409 337.263785h-152.608048a38.152012 38.152012 0 0 1 0-76.304023h152.608048a38.152012 38.152012 0 0 1 0 76.304023zM753.629409 498.010929h-483.258818a38.152012 38.152012 0 0 1 0-76.304024h483.258818a38.152012 38.152012 0 0 1 0 76.304024zM753.629409 661.30154h-483.258818a38.152012 38.152012 0 0 1 0-76.304024h483.258818a38.152012 38.152012 0 0 1 0 76.304024zM753.629409 820.522603h-483.258818a38.152012 38.152012 0 1 1 0-76.304024h483.258818a38.152012 38.152012 0 1 1 0 76.304024zM326.835569 364.733234A37.643318 37.643318 0 0 1 299.874814 356.085445L243.409836 297.077a38.152012 38.152012 0 0 1 0-53.921511 37.643318 37.643318 0 0 1 53.92151 0l29.504223 29.504223 90.038748-90.038748a38.152012 38.152012 0 0 1 53.92151 0 39.169399 39.169399 0 0 1 0 54.430203L353.796324 356.085445a37.134625 37.134625 0 0 1-26.960755 8.647789z" fill="#006FE6" p-id="3365"></path></svg>