<?xml version="1.0" standalone="no"?><!DOCTYPE svg PUBLIC "-//W3C//DTD SVG 1.1//EN" "http://www.w3.org/Graphics/SVG/1.1/DTD/svg11.dtd"><svg t="1604038395874" class="icon" viewBox="0 0 1027 1024" version="1.1" xmlns="http://www.w3.org/2000/svg" p-id="12385" xmlns:xlink="http://www.w3.org/1999/xlink" width="200.5859375" height="200"><defs><style type="text/css"></style></defs><path d="M621.682313 402.278191v219.417288h-219.417287v-219.417288h219.417287m0-73.139095h-219.417287a73.139096 73.139096 0 0 0-73.139095 73.139095v219.417288a73.139096 73.139096 0 0 0 73.139095 73.139095h219.417287a73.139096 73.139096 0 0 0 73.139096-73.139095v-219.417288a73.139096 73.139096 0 0 0-73.139096-73.139095z" fill="#62d8ed" p-id="12386"></path><path d="M511.97367 73.152261a433.714838 433.714838 0 0 1 310.109766 128.724808 438.834574 438.834574 0 0 1 0 620.219532 438.834574 438.834574 0 0 1-620.219532 0 438.834574 438.834574 0 0 1 0-620.219532A433.714838 433.714838 0 0 1 511.97367 73.152261m0-73.139096a511.97367 511.97367 0 1 0 365.695478 149.935146A511.97367 511.97367 0 0 0 511.97367 0.013165z" fill="#62d8ed" p-id="12387"></path></svg>