<?xml version="1.0" standalone="no"?><!DOCTYPE svg PUBLIC "-//W3C//DTD SVG 1.1//EN" "http://www.w3.org/Graphics/SVG/1.1/DTD/svg11.dtd"><svg t="1605061707517" class="icon" viewBox="0 0 1024 1024" version="1.1" xmlns="http://www.w3.org/2000/svg" p-id="2760" xmlns:xlink="http://www.w3.org/1999/xlink" width="200" height="200"><defs><style type="text/css"></style></defs><path d="M292.571429 867.474286a39.497143 39.497143 0 0 1-26.331429-10.24l-219.428571-219.428572a37.302857 37.302857 0 0 1-8.045715-40.228571 36.571429 36.571429 0 0 1 34.377143-22.674286h877.714286a36.571429 36.571429 0 0 1 36.571428 36.571429 36.571429 36.571429 0 0 1-36.571428 36.571428H160.914286L318.171429 804.571429a37.302857 37.302857 0 0 1 0 51.931428 39.497143 39.497143 0 0 1-25.6 10.971429zM950.857143 449.097143H73.142857a37.302857 37.302857 0 0 1-36.571428-36.571429 36.571429 36.571429 0 0 1 36.571428-36.571428h789.942857L705.828571 219.428571a36.571429 36.571429 0 0 1 0-51.931428 36.571429 36.571429 0 0 1 51.2 0l219.428572 219.428571a35.84 35.84 0 0 1 8.045714 40.228572 36.571429 36.571429 0 0 1-33.645714 21.942857z" p-id="2761"></path></svg>