<?xml version="1.0" standalone="no"?><!DOCTYPE svg PUBLIC "-//W3C//DTD SVG 1.1//EN" "http://www.w3.org/Graphics/SVG/1.1/DTD/svg11.dtd"><svg t="1604038402274" class="icon" viewBox="0 0 1027 1024" version="1.1" xmlns="http://www.w3.org/2000/svg" p-id="12511" xmlns:xlink="http://www.w3.org/1999/xlink" width="200.5859375" height="200"><defs><style type="text/css"></style></defs><path d="M511.97367 73.152261a433.714838 433.714838 0 0 1 310.109766 128.724808 438.834574 438.834574 0 0 1 0 620.219532 438.834574 438.834574 0 0 1-620.219532 0 438.834574 438.834574 0 0 1 0-620.219532A433.714838 433.714838 0 0 1 511.97367 73.152261m0-73.139096a511.97367 511.97367 0 1 0 365.695478 149.935146A511.97367 511.97367 0 0 0 511.97367 0.013165z" fill="#ffbc1b" p-id="12512"></path><path d="M850.607683 548.556383H174.071048a36.569548 36.569548 0 1 1 0-73.139096h676.536635a36.569548 36.569548 0 1 1 0 73.139096z" fill="#ffbc1b" p-id="12513"></path></svg>