<?xml version="1.0" standalone="no"?><!DOCTYPE svg PUBLIC "-//W3C//DTD SVG 1.1//EN" "http://www.w3.org/Graphics/SVG/1.1/DTD/svg11.dtd"><svg t="1604656989653" class="icon" viewBox="0 0 1024 1024" version="1.1" xmlns="http://www.w3.org/2000/svg" p-id="5510" xmlns:xlink="http://www.w3.org/1999/xlink" width="200" height="200"><defs><style type="text/css"></style></defs><path d="M318.171429 1011.565714a307.931429 307.931429 0 0 1-219.428572-525.165714L182.857143 403.748571a36.571429 36.571429 0 0 1 51.2 0 36.571429 36.571429 0 0 1 0 51.931429L152.137143 537.6a234.788571 234.788571 0 0 0 332.068571 332.8l82.651429-82.651429a36.571429 36.571429 0 0 1 51.2 0 36.571429 36.571429 0 0 1 0 51.931429L536.137143 921.6a307.2 307.2 0 0 1-217.965714 89.965714zM811.885714 631.222857a35.84 35.84 0 0 1-25.6-10.971428 36.571429 36.571429 0 0 1 0-51.931429l81.92-81.92a235.52 235.52 0 0 0 0-332.8 235.52 235.52 0 0 0-332.068571 0L453.485714 236.251429a36.571429 36.571429 0 0 1-51.2 0 36.571429 36.571429 0 0 1 0-51.931429L484.205714 102.4a307.931429 307.931429 0 0 1 438.857143 435.2l-85.577143 82.651429a34.377143 34.377143 0 0 1-25.6 10.971428zM799.451429 837.485714a37.302857 37.302857 0 0 1-26.331429-10.971428l-577.828571-577.828572a36.571429 36.571429 0 0 1 0-51.2 36.571429 36.571429 0 0 1 51.931428 0l577.828572 577.828572a36.571429 36.571429 0 0 1-25.6 62.171428z" fill="#FFBC1B" p-id="5511"></path></svg>