<?xml version="1.0" standalone="no"?><!DOCTYPE svg PUBLIC "-//W3C//DTD SVG 1.1//EN" "http://www.w3.org/Graphics/SVG/1.1/DTD/svg11.dtd"><svg t="1608608315362" class="icon" viewBox="0 0 1024 1024" version="1.1" xmlns="http://www.w3.org/2000/svg" p-id="4941" xmlns:xlink="http://www.w3.org/1999/xlink" width="200" height="200"><defs><style type="text/css"></style></defs><path d="M832.01536 1024H192.01536A192 192 0 0 1 0.01536 832V301.568a112.128 112.128 0 0 1 62.464-102.4L431.63136 22.016a194.56 194.56 0 0 1 157.696 0l371.712 179.712a111.616 111.616 0 0 1 62.976 102.4v102.4a38.4 38.4 0 1 1-76.8 0v-102.4a35.328 35.328 0 0 0-19.456-31.232l-371.2-179.2a114.688 114.688 0 0 0-92.672 0L96.27136 270.336a34.816 34.816 0 0 0-19.456 31.232v530.432a115.2 115.2 0 0 0 115.2 115.2h640a115.2 115.2 0 0 0 115.2-115.2V757.76a38.4 38.4 0 1 1 76.8 0v74.24A192 192 0 0 1 832.01536 1024z" fill="#BBC5D3" p-id="4942"></path><path d="M439.31136 642.048a38.4 38.4 0 0 1-27.136-65.536l128-128a37.888 37.888 0 0 1 54.272 0 38.4 38.4 0 0 1 0 54.272L531.98336 563.2h437.248a38.4 38.4 0 0 1 0 76.8z" fill="#BBC5D3" p-id="4943"></path></svg>