<?xml version="1.0" standalone="no"?><!DOCTYPE svg PUBLIC "-//W3C//DTD SVG 1.1//EN" "http://www.w3.org/Graphics/SVG/1.1/DTD/svg11.dtd"><svg t="1608608380768" class="icon" viewBox="0 0 1024 1024" version="1.1" xmlns="http://www.w3.org/2000/svg" p-id="5963" xmlns:xlink="http://www.w3.org/1999/xlink" width="200" height="200"><defs><style type="text/css"></style></defs><path d="M985.61536 757.76v74.24a153.6 153.6 0 0 1-153.6 153.6H192.01536a153.6 153.6 0 0 1-153.6-153.6V301.568a72.704 72.704 0 0 1 40.96-65.536l368.64-179.2a153.6 153.6 0 0 1 125.44 0l371.2 179.2a72.704 72.704 0 0 1 40.96 65.536v456.192z" fill="#FFFFFF" p-id="5964"></path><path d="M832.01536 1024H192.01536A192 192 0 0 1 0.01536 832V301.568a112.128 112.128 0 0 1 62.464-102.4L431.63136 22.016a194.56 194.56 0 0 1 157.696 0l371.712 179.712a111.616 111.616 0 0 1 62.976 102.4v527.872A192 192 0 0 1 832.01536 1024zM512.01536 81.408a116.736 116.736 0 0 0-47.104 10.24l-368.64 178.688a34.816 34.816 0 0 0-19.456 31.232v530.432a115.2 115.2 0 0 0 115.2 115.2h640a115.2 115.2 0 0 0 115.2-115.2V301.568a35.328 35.328 0 0 0-19.456-31.232l-371.2-179.2a113.664 113.664 0 0 0-44.544-9.728z" fill="#FFFFFF" p-id="5965"></path><path d="M439.31136 642.048a38.4 38.4 0 0 1-27.136-65.536l128-128a37.888 37.888 0 0 1 54.272 0 38.4 38.4 0 0 1 0 54.272L531.98336 563.2h437.248a38.4 38.4 0 0 1 0 76.8z" fill="#006FE6" p-id="5966"></path></svg>